<svg width="120" height="97" viewBox="0 0 120 97" fill="none" xmlns="http://www.w3.org/2000/svg">
<rect width="120" height="96.6606" rx="48.3303" fill="#A000B9" fill-opacity="0.5"/>
<path d="M96.5924 44.9952V40.6129C96.5924 40.315 96.4586 40.0292 96.2204 39.8185C95.9822 39.6078 95.6592 39.4894 95.3223 39.4894H90.4638V28.9501C90.4243 26.7428 89.4054 24.6378 87.6269 23.0893C85.8484 21.5407 83.453 20.6728 80.9576 20.6728C78.4621 20.6728 76.0667 21.5407 74.2882 23.0893C72.5098 24.6378 71.4908 26.7428 71.4513 28.9501V30.5689C71.002 30.1974 70.5243 29.8537 70.0216 29.5403V19.7071C70.0393 18.832 69.8598 17.9625 69.4935 17.1495C69.1271 16.3365 68.5814 15.5962 67.8881 14.9718C67.1947 14.3474 66.3678 13.8515 65.4554 13.5129C64.543 13.1744 63.5635 13 62.5742 13C61.5848 13 60.6053 13.1744 59.6929 13.5129C58.7806 13.8515 57.9536 14.3474 57.2603 14.9718C56.5669 15.5962 56.0212 16.3365 55.6549 17.1495C55.2885 17.9625 55.109 18.832 55.1267 19.7071V29.5234C54.625 29.838 54.1474 30.1817 53.697 30.5521V28.9353C53.6575 26.7281 52.6386 24.6231 50.8601 23.0745C49.0816 21.526 46.6862 20.6581 44.1908 20.6581C41.6953 20.6581 39.2999 21.526 37.5214 23.0745C35.743 24.6231 34.724 26.7281 34.6845 28.9353V39.4747H29.8212C29.6544 39.4747 29.4893 39.5037 29.3352 39.5602C29.1811 39.6167 29.0411 39.6994 28.9232 39.8038C28.8052 39.9081 28.7117 40.0319 28.6478 40.1682C28.584 40.3046 28.5512 40.4506 28.5512 40.5982V44.9868C27.2619 45.2425 26.1092 45.8784 25.2822 46.7899C24.4552 47.7015 24.0031 48.8347 24 50.0035C24 50.3015 24.1338 50.5872 24.372 50.7979C24.6102 51.0086 24.9332 51.127 25.27 51.127H34.37C34.7068 51.127 35.0299 51.0086 35.2681 50.7979C35.5062 50.5872 35.64 50.3015 35.64 50.0035C35.6371 48.835 35.1853 47.702 34.3587 46.7905C33.5322 45.879 32.3801 45.2429 31.0913 44.9868V41.7301H49.1148V55.5788H43.4175C43.0807 55.5788 42.7577 55.6972 42.5195 55.9079C42.2813 56.1186 42.1475 56.4044 42.1475 56.7023V67.3618C40.4514 67.6252 38.9143 68.4083 37.8055 69.5737C36.6967 70.7392 36.087 72.2128 36.0832 73.7361C36.0832 74.034 36.2171 74.3198 36.4552 74.5305C36.6934 74.7412 37.0164 74.8595 37.3533 74.8595H49.4818C49.8186 74.8595 50.1417 74.7412 50.3799 74.5305C50.618 74.3198 50.7518 74.034 50.7518 73.7361C50.7508 72.2131 50.1437 70.739 49.037 69.5724C47.9304 68.4057 46.3948 67.6209 44.6995 67.3555V57.8195H61.3125V67.3555C59.6164 67.6189 58.0793 68.4019 56.9704 69.5674C55.8616 70.7329 55.2519 72.2064 55.2482 73.7297C55.2482 74.0277 55.382 74.3135 55.6202 74.5242C55.8584 74.7349 56.1814 74.8532 56.5182 74.8532H68.6491C68.986 74.8532 69.309 74.7349 69.5472 74.5242C69.7854 74.3135 69.9192 74.0277 69.9192 73.7297C69.9149 72.2062 69.3047 70.7327 68.1955 69.5672C67.0863 68.4018 65.5488 67.6188 63.8525 67.3555V57.8195H80.4679V67.3555C78.7718 67.6189 77.2347 68.4019 76.1259 69.5674C75.0171 70.7329 74.4074 72.2064 74.4036 73.7297C74.4036 74.0277 74.5374 74.3135 74.7756 74.5242C75.0138 74.7349 75.3368 74.8532 75.6737 74.8532H87.8022C88.139 74.8532 88.4621 74.7349 88.7002 74.5242C88.9384 74.3135 89.0722 74.0277 89.0722 73.7297C89.0685 72.2064 88.4588 70.7329 87.35 69.5674C86.2412 68.4019 84.704 67.6189 83.008 67.3555V56.696C83.008 56.398 82.8742 56.1123 82.636 55.9016C82.3978 55.6909 82.0748 55.5725 81.7379 55.5725H76.0263V41.7301H94.0523V44.9952C92.7622 45.2501 91.6084 45.8856 90.7805 46.7973C89.9525 47.7089 89.4997 48.8425 89.4964 50.0119C89.4964 50.3099 89.6302 50.5957 89.8684 50.8064C90.1065 51.0171 90.4296 51.1354 90.7664 51.1354H99.864C100.201 51.1354 100.524 51.0171 100.762 50.8064C101 50.5957 101.134 50.3099 101.134 50.0119C101.131 48.8443 100.681 47.712 99.8555 46.8006C99.0304 45.8892 97.8799 45.2526 96.5924 44.9952ZM32.8426 48.8863H26.7974C27.0484 48.3607 27.469 47.9121 28.0066 47.5967C28.5442 47.2813 29.1749 47.1131 29.82 47.1131C30.4651 47.1131 31.0959 47.2813 31.6335 47.5967C32.1711 47.9121 32.5916 48.3607 32.8426 48.8863ZM48.0354 72.6062H38.7901C39.0685 71.7106 39.6716 70.9206 40.5067 70.3576C41.3418 69.7945 42.3628 69.4896 43.4128 69.4896C44.4628 69.4896 45.4838 69.7945 46.3189 70.3576C47.154 70.9206 47.7571 71.7106 48.0354 72.6062ZM67.1909 72.6062H57.9479C58.2271 71.711 58.8307 70.9215 59.6659 70.3589C60.5011 69.7963 61.522 69.4916 62.5718 69.4916C63.6216 69.4916 64.6424 69.7963 65.4777 70.3589C66.3129 70.9215 66.9164 71.711 67.1956 72.6062H67.1909ZM86.3439 72.6062H77.1057C77.3841 71.7106 77.9872 70.9206 78.8223 70.3576C79.6574 69.7945 80.6784 69.4896 81.7284 69.4896C82.7784 69.4896 83.7994 69.7945 84.6345 70.3576C85.4696 70.9206 86.0727 71.7106 86.3511 72.6062H86.3439ZM57.6596 19.6986C57.6452 19.1205 57.7615 18.5456 58.0016 18.0078C58.2418 17.4699 58.601 16.9799 59.0581 16.5666C59.5152 16.1532 60.0611 15.8247 60.6636 15.6005C61.2662 15.3763 61.9133 15.2607 62.567 15.2607C63.2207 15.2607 63.8678 15.3763 64.4704 15.6005C65.073 15.8247 65.6188 16.1532 66.0759 16.5666C66.5331 16.9799 66.8922 17.4699 67.1324 18.0078C67.3725 18.5456 67.4888 19.1205 67.4744 19.6986V28.362C64.3274 27.2323 60.8066 27.2323 57.6596 28.362V19.6986ZM62.5706 29.77C65.4646 29.7728 68.2392 30.7911 70.2856 32.6013C72.332 34.4116 73.4831 36.8661 73.4863 39.4262V55.5788H67.0026V41.3781L69.7357 38.3976C69.9324 38.1646 70.0195 37.8733 69.9788 37.5847C69.9382 37.2962 69.7728 37.0328 69.5175 36.8496C69.2621 36.6665 68.9365 36.5779 68.609 36.6024C68.2814 36.6269 67.9773 36.7626 67.7604 36.9811L64.7437 40.2715C64.5599 40.4717 64.4598 40.7218 64.4602 40.9797V55.5788H61.3792V40.9797C61.3794 40.8321 61.3467 40.686 61.2829 40.5496C61.2191 40.4132 61.1255 40.2893 61.0075 40.185L57.2879 36.8947C57.1699 36.7903 57.0299 36.7075 56.8757 36.651C56.7216 36.5946 56.5564 36.5655 56.3896 36.5655C56.2227 36.5655 56.0575 36.5946 55.9034 36.651C55.7493 36.7075 55.6092 36.7903 55.4913 36.8947C55.3733 36.999 55.2797 37.1229 55.2159 37.2592C55.152 37.3956 55.1192 37.5417 55.1192 37.6893C55.1192 37.8369 55.152 37.983 55.2159 38.1194C55.2797 38.2557 55.3733 38.3796 55.4913 38.484L58.8391 41.435V55.5578H51.6549V39.4115C51.6625 36.8539 52.8155 34.4032 54.8614 32.5961C56.9073 30.789 59.6794 29.7728 62.5706 29.77ZM37.2198 39.4831V28.9438C37.2536 27.3291 38.0024 25.7907 39.3051 24.6594C40.6078 23.5281 42.3605 22.8943 44.186 22.8943C46.0115 22.8943 47.7642 23.5281 49.0669 24.6594C50.3696 25.7907 51.1184 27.3291 51.1522 28.9438V33.2143C49.8301 35.0789 49.1244 37.2336 49.1148 39.4346V39.4915L37.2198 39.4831ZM73.9914 33.2101V28.9353C74.0252 27.3207 74.7739 25.7823 76.0767 24.651C77.3794 23.5197 79.132 22.8859 80.9576 22.8859C82.7831 22.8859 84.5357 23.5197 85.8385 24.651C87.1412 25.7823 87.89 27.3207 87.9237 28.9353V39.4747H76.0263V39.4178C76.0155 37.2212 75.3107 35.071 73.9914 33.2101ZM92.3009 48.8863C92.5514 48.3605 92.9717 47.9117 93.5091 47.5962C94.0466 47.2806 94.6773 47.1123 95.3223 47.1123C95.9674 47.1123 96.5981 47.2806 97.1355 47.5962C97.673 47.9117 98.0933 48.3605 98.3438 48.8863H92.3009Z" fill="black"/>
</svg>
