<svg width="120" height="97" viewBox="0 0 120 97" fill="none" xmlns="http://www.w3.org/2000/svg">
<rect width="120" height="96.6606" rx="48.3303" fill="#04ADD7" fill-opacity="0.5"/>
<path d="M36.4546 57.0932C36.135 57.0932 35.8765 56.7892 35.8765 56.4135V33.3057C35.8765 32.93 36.135 32.626 36.4546 32.626C36.7741 32.626 37.0327 32.93 37.0327 33.3057V56.4135C37.0327 56.7892 36.7741 57.0932 36.4546 57.0932Z" fill="black"/>
<path d="M58.422 57.0925H36.4546C36.135 57.0925 35.8765 56.7885 35.8765 56.4128C35.8764 56.3235 35.8914 56.2351 35.9204 56.1526C35.9494 56.0702 35.992 55.9952 36.0457 55.9321C36.0994 55.869 36.1632 55.819 36.2333 55.7848C36.3035 55.7507 36.3787 55.7332 36.4546 55.7333H58.422C58.498 55.7332 58.5731 55.7508 58.6433 55.7849C58.7134 55.819 58.7771 55.8691 58.8308 55.9322C58.8845 55.9953 58.9271 56.0702 58.9561 56.1527C58.9851 56.2351 59.0001 56.3235 59 56.4128C59 56.7885 58.7415 57.0925 58.422 57.0925ZM38.7669 51.6553C38.6526 51.6554 38.5408 51.6156 38.4457 51.541C38.3506 51.4663 38.2764 51.3602 38.2327 51.2359C38.1889 51.1117 38.1775 50.975 38.1998 50.8432C38.2222 50.7113 38.2773 50.5902 38.3582 50.4952L45.2953 42.3393C45.3486 42.2744 45.4124 42.2226 45.4829 42.187C45.5535 42.1514 45.6293 42.1326 45.7061 42.1319C45.7829 42.1311 45.859 42.1483 45.93 42.1824C46.0011 42.2166 46.0656 42.2671 46.1199 42.3309C46.1742 42.3947 46.2171 42.4706 46.2462 42.5541C46.2753 42.6377 46.2899 42.7272 46.2892 42.8174C46.2886 42.9077 46.2726 42.9969 46.2423 43.0798C46.212 43.1627 46.168 43.2377 46.1127 43.3004L39.1757 51.4562C39.1221 51.5194 39.0584 51.5695 38.9882 51.6037C38.9181 51.6378 38.8429 51.6554 38.7669 51.6553Z" fill="black"/>
<path d="M49.1725 47.5773C49.0966 47.5774 49.0214 47.5599 48.9512 47.5257C48.8811 47.4915 48.8174 47.4414 48.7638 47.3782L45.2951 43.3004C45.2399 43.2377 45.1959 43.1627 45.1656 43.0798C45.1353 42.9969 45.1193 42.9077 45.1187 42.8174C45.118 42.7272 45.1326 42.6377 45.1617 42.5541C45.1908 42.4706 45.2337 42.3947 45.288 42.3309C45.3423 42.2671 45.4068 42.2166 45.4779 42.1824C45.5489 42.1483 45.625 42.1311 45.7018 42.1319C45.7786 42.1326 45.8544 42.1514 45.925 42.187C45.9955 42.2226 46.0593 42.2744 46.1126 42.3393L49.5811 46.4173C49.662 46.5123 49.7171 46.6334 49.7395 46.7652C49.7618 46.897 49.7504 47.0337 49.7066 47.1579C49.6629 47.2821 49.5888 47.3883 49.4937 47.4629C49.3986 47.5376 49.2868 47.5774 49.1725 47.5773Z" fill="black"/>
<path d="M49.1725 47.5775C49.0581 47.5776 48.9463 47.5378 48.8512 47.4632C48.7561 47.3885 48.682 47.2824 48.6382 47.1581C48.5945 47.0339 48.583 46.8972 48.6054 46.7654C48.6277 46.6335 48.6829 46.5124 48.7638 46.4174L58.0132 35.5431C58.1224 35.4203 58.2682 35.3526 58.4193 35.3545C58.5704 35.3565 58.7149 35.428 58.8217 35.5536C58.9286 35.6793 58.9894 35.8491 58.991 36.0268C58.9926 36.2045 58.935 36.3758 58.8305 36.5042L49.5811 47.3785C49.5275 47.4417 49.4638 47.4917 49.3937 47.5259C49.3236 47.56 49.2484 47.5776 49.1725 47.5775Z" fill="black"/>
<path d="M58.4221 39.4217C58.1026 39.4217 57.844 39.1177 57.844 38.742V36.0234C57.844 35.6477 58.1026 35.3438 58.4221 35.3438C58.498 35.3437 58.5732 35.3613 58.6434 35.3954C58.7135 35.4295 58.7773 35.4796 58.8309 35.5427C58.8846 35.6059 58.9272 35.6808 58.9562 35.7633C58.9852 35.8458 59.0002 35.9342 59.0001 36.0234V38.742C59.0001 39.1177 58.7415 39.4217 58.4221 39.4217Z" fill="black"/>
<path d="M58.422 36.7038H56.1096C55.7901 36.7038 55.5315 36.3998 55.5315 36.0241C55.5315 35.6484 55.7901 35.3444 56.1096 35.3444H58.422C58.4979 35.3443 58.5731 35.3619 58.6432 35.396C58.7134 35.4302 58.7771 35.4802 58.8308 35.5434C58.8845 35.6065 58.9271 35.6814 58.9561 35.7639C58.9851 35.8464 59 35.9348 59 36.0241C59 36.3998 58.7414 36.7038 58.422 36.7038ZM76.3427 54.3746C70.6048 54.3746 65.9372 48.887 65.9372 42.1409C65.9372 35.3949 70.6048 29.9072 76.3427 29.9072C82.0806 29.9072 86.7482 35.395 86.7482 42.1409C86.7482 48.8868 82.0806 54.3746 76.3427 54.3746ZM76.3427 31.2666C71.2426 31.2666 67.0933 36.1449 67.0933 42.1409C67.0933 48.137 71.2426 53.0152 76.3427 53.0152C81.4428 53.0152 85.5921 48.137 85.5921 42.1409C85.5921 36.1449 81.4428 31.2666 76.3427 31.2666Z" fill="black"/>
<path d="M76.3428 57.0929C70.6049 57.0929 65.9373 51.6053 65.9373 44.8594C65.9373 44.4837 66.1958 44.1797 66.5152 44.1797C66.8348 44.1797 67.0934 44.4837 67.0934 44.8594C67.0934 50.8552 71.2427 55.7337 76.3428 55.7337C81.4429 55.7337 85.5922 50.8552 85.5922 44.8594C85.5922 44.4837 85.8508 44.1797 86.1703 44.1797C86.2463 44.1796 86.3214 44.1972 86.3916 44.2313C86.4617 44.2655 86.5255 44.3155 86.5792 44.3787C86.6328 44.4418 86.6754 44.5167 86.7044 44.5992C86.7335 44.6817 86.7484 44.7701 86.7483 44.8594C86.7483 51.6053 82.0807 57.0929 76.3428 57.0929Z" fill="black"/>
<path d="M66.5152 45.5386C66.4393 45.5386 66.3642 45.5211 66.294 45.4869C66.2239 45.4528 66.1601 45.4027 66.1065 45.3396C66.0528 45.2765 66.0102 45.2016 65.9812 45.1191C65.9521 45.0367 65.9372 44.9483 65.9373 44.859V42.1403C65.9373 41.7648 66.1958 41.4606 66.5152 41.4606C66.8348 41.4606 67.0934 41.7646 67.0934 42.1403V44.859C67.0934 44.9483 67.0785 45.0367 67.0494 45.1192C67.0204 45.2016 66.9778 45.2766 66.9241 45.3397C66.8704 45.4028 66.8067 45.4528 66.7365 45.487C66.6664 45.5211 66.5912 45.5386 66.5152 45.5386ZM86.1703 45.5386C85.8508 45.5386 85.5922 45.2346 85.5922 44.859V42.1403C85.5922 41.7648 85.8508 41.4606 86.1703 41.4606C86.2463 41.4606 86.3214 41.4781 86.3916 41.5122C86.4617 41.5464 86.5255 41.5965 86.5792 41.6596C86.6328 41.7227 86.6754 41.7977 86.7044 41.8801C86.7335 41.9626 86.7484 42.051 86.7483 42.1403V44.859C86.7483 44.9483 86.7334 45.0367 86.7044 45.1191C86.6754 45.2016 86.6328 45.2765 86.5791 45.3396C86.5254 45.4027 86.4617 45.4528 86.3916 45.4869C86.3214 45.5211 86.2462 45.5386 86.1703 45.5386ZM76.3428 47.5774C73.7933 47.5774 71.7181 45.1391 71.7181 42.1403C71.7181 39.1417 73.7933 36.7031 76.3428 36.7031C78.8923 36.7031 80.9675 39.1417 80.9675 42.1403C80.9675 45.1391 78.8923 47.5774 76.3428 47.5774ZM76.3428 38.0625C74.4302 38.0625 72.8742 39.8917 72.8742 42.1405C72.8742 44.3892 74.4302 46.2184 76.3428 46.2184C78.2554 46.2184 79.8114 44.3892 79.8114 42.1405C79.8114 39.8917 78.2555 38.0625 76.3428 38.0625Z" fill="black"/>
<path d="M80.2223 44.1796C80.0977 44.1793 79.9766 44.132 79.8768 44.0445C79.777 43.957 79.7037 43.834 79.668 43.6938C79.2344 41.9788 77.867 40.7813 76.3428 40.7813C74.8185 40.7813 73.4511 41.9786 73.0175 43.6938C72.926 44.0522 72.6076 44.2554 72.2983 44.1517C72.1513 44.1003 72.0277 43.9823 71.9546 43.8237C71.8816 43.6651 71.8651 43.4789 71.9088 43.306C72.4881 41.0189 74.3104 39.422 76.3428 39.422C78.3752 39.422 80.1974 41.0189 80.7767 43.306C80.8204 43.4789 80.8039 43.6651 80.7309 43.8237C80.6578 43.9823 80.5342 44.1003 80.3872 44.1517C80.3336 44.17 80.2781 44.1793 80.2223 44.1796ZM73.4466 39.4153C73.3707 39.4154 73.2955 39.3979 73.2254 39.3637C73.1552 39.3295 73.0915 39.2794 73.0379 39.2162L68.9857 34.4519C68.8812 34.3235 68.8236 34.1522 68.8253 33.9745C68.8269 33.7968 68.8877 33.627 68.9946 33.5013C69.1015 33.3757 69.246 33.3043 69.3971 33.3023C69.5482 33.3004 69.694 33.3681 69.8031 33.491L73.8554 38.2551C73.9362 38.3502 73.9912 38.4713 74.0135 38.6031C74.0358 38.7349 74.0244 38.8715 73.9806 38.9957C73.9369 39.1199 73.8628 39.2261 73.7678 39.3007C73.6727 39.3754 73.561 39.4153 73.4466 39.4153ZM76.3428 54.3742C76.0232 54.3742 75.7646 54.0702 75.7646 53.6945V46.8982C75.7646 46.5225 76.0232 46.2185 76.3428 46.2185C76.6623 46.2185 76.9209 46.5225 76.9209 46.8982V53.6945C76.9209 54.0702 76.6623 54.3742 76.3428 54.3742ZM58.422 62.53H36.4546C36.135 62.53 35.8765 62.226 35.8765 61.8503C35.8764 61.761 35.8914 61.6726 35.9204 61.5901C35.9494 61.5077 35.992 61.4327 36.0457 61.3696C36.0994 61.3065 36.1632 61.2565 36.2333 61.2224C36.3035 61.1882 36.3787 61.1707 36.4546 61.1708H58.422C58.498 61.1707 58.5731 61.1883 58.6433 61.2224C58.7134 61.2565 58.7771 61.3066 58.8308 61.3697C58.8845 61.4328 58.9271 61.5077 58.9561 61.5902C58.9851 61.6727 59.0001 61.761 59 61.8503C59 62.226 58.7415 62.53 58.422 62.53ZM58.422 65.2486H36.4546C36.135 65.2486 35.8765 64.9446 35.8765 64.5689C35.8765 64.1932 36.135 63.8892 36.4546 63.8892H58.422C58.7415 63.8892 59 64.1932 59 64.5689C59 64.9446 58.7415 65.2486 58.422 65.2486ZM42.2355 67.9671H36.4546C36.135 67.9671 35.8765 67.6631 35.8765 67.2874C35.8764 67.1982 35.8914 67.1098 35.9204 67.0273C35.9494 66.9448 35.992 66.8699 36.0457 66.8068C36.0994 66.7437 36.1632 66.6936 36.2333 66.6595C36.3035 66.6254 36.3787 66.6079 36.4546 66.6079H42.2355C42.3115 66.6079 42.3866 66.6254 42.4568 66.6596C42.5269 66.6937 42.5907 66.7437 42.6443 66.8069C42.698 66.87 42.7406 66.9449 42.7696 67.0273C42.7986 67.1098 42.8136 67.1982 42.8135 67.2874C42.8135 67.6631 42.555 67.9671 42.2355 67.9671ZM88.4827 62.53H66.5152C66.4393 62.53 66.3641 62.5125 66.2939 62.4783C66.2238 62.4442 66.1601 62.3941 66.1064 62.331C66.0527 62.2679 66.0101 62.1929 65.9811 62.1104C65.9521 62.0279 65.9372 61.9395 65.9372 61.8503C65.9372 61.761 65.9521 61.6727 65.9811 61.5902C66.0102 61.5077 66.0528 61.4328 66.1064 61.3697C66.1601 61.3066 66.2238 61.2565 66.294 61.2224C66.3641 61.1883 66.4393 61.1707 66.5152 61.1708H88.4827C88.8022 61.1708 89.0608 61.4748 89.0608 61.8503C89.0608 62.226 88.8022 62.53 88.4827 62.53ZM88.4827 65.2486H66.5152C66.1958 65.2486 65.9372 64.9446 65.9372 64.5689C65.9372 64.1932 66.1958 63.8892 66.5152 63.8892H88.4827C88.8022 63.8892 89.0608 64.1932 89.0608 64.5689C89.0608 64.9446 88.8022 65.2486 88.4827 65.2486ZM72.2962 67.9671H66.5152C66.4393 67.9672 66.3641 67.9496 66.2939 67.9155C66.2238 67.8813 66.1601 67.8313 66.1064 67.7681C66.0527 67.705 66.0101 67.6301 65.9811 67.5476C65.9521 67.4651 65.9372 67.3767 65.9372 67.2874C65.9372 67.1982 65.9521 67.1098 65.9811 67.0273C66.0102 66.9449 66.0528 66.87 66.1064 66.8069C66.1601 66.7437 66.2238 66.6937 66.294 66.6596C66.3641 66.6254 66.4393 66.6079 66.5152 66.6079H72.2962C72.3721 66.6079 72.4473 66.6254 72.5174 66.6596C72.5875 66.6937 72.6513 66.7437 72.7049 66.8069C72.7586 66.87 72.8012 66.9449 72.8302 67.0273C72.8593 67.1098 72.8742 67.1982 72.8741 67.2874C72.8741 67.6631 72.6156 67.9671 72.2962 67.9671ZM95.4197 72.0451C95.1002 72.0451 94.8416 71.7411 94.8416 71.3654V11.5566C94.8416 11.1809 95.1002 10.877 95.4197 10.877C95.4956 10.8769 95.5708 10.8945 95.641 10.9286C95.7111 10.9627 95.7749 11.0128 95.8285 11.0759C95.8822 11.1391 95.9248 11.214 95.9538 11.2965C95.9828 11.379 95.9978 11.4674 95.9977 11.5566V71.3654C95.9977 71.7411 95.7391 72.0451 95.4197 72.0451Z" fill="black"/>
<path d="M29.5176 72.0451C29.198 72.0451 28.9395 71.7411 28.9395 71.3654V11.5566C28.9395 11.1809 29.198 10.877 29.5176 10.877C29.8371 10.877 30.0957 11.1809 30.0957 11.5566V71.3654C30.0957 71.7411 29.8371 72.0451 29.5176 72.0451Z" fill="black"/>
<path d="M26.0491 76.1227C25.7295 76.1227 25.4709 75.8187 25.4709 75.443C25.4709 75.0673 25.7295 74.7633 26.0491 74.7633C27.6427 74.7633 28.9394 73.2395 28.9394 71.3652C28.9394 70.9895 29.198 70.6855 29.5175 70.6855C29.8371 70.6855 30.0957 70.9895 30.0957 71.3652C30.0957 73.9883 28.2801 76.1227 26.0491 76.1227Z" fill="black"/>
<path d="M91.9512 76.1227C91.6316 76.1227 91.373 75.8187 91.373 75.443C91.373 75.0673 91.6316 74.7633 91.9512 74.7633C93.5455 74.7633 94.8417 73.2395 94.8417 71.3652C94.8417 70.9895 95.1002 70.6855 95.4198 70.6855C95.4957 70.6855 95.5709 70.7031 95.641 70.7372C95.7112 70.7713 95.7749 70.8214 95.8286 70.8845C95.8823 70.9477 95.9249 71.0226 95.9539 71.1051C95.9829 71.1876 95.9978 71.276 95.9978 71.3652C95.9978 73.9883 94.1823 76.1227 91.9512 76.1227Z" fill="black"/>
<path d="M26.0489 76.1227C23.8178 76.1227 22.0022 73.9881 22.0022 71.3652C22.0022 70.9895 22.2608 70.6855 22.5803 70.6855C22.8999 70.6855 23.1584 70.9895 23.1584 71.3652C23.1584 73.2395 24.4552 74.7633 26.0489 74.7633C26.3683 74.7633 26.6269 75.0673 26.6269 75.443C26.6269 75.8187 26.3683 76.1227 26.0489 76.1227Z" fill="black"/>
<path d="M22.5803 72.0454C22.2608 72.0454 22.0022 71.7414 22.0022 71.3657V15.6348C22.0022 15.2592 22.2608 14.9551 22.5803 14.9551C22.8999 14.9551 23.1584 15.2591 23.1584 15.6348V71.3657C23.1584 71.7414 22.8999 72.0454 22.5803 72.0454Z" fill="black"/>
<path d="M27.2051 72.0453C26.8855 72.0453 26.627 71.7413 26.627 71.3656V12.916C26.627 12.5405 26.8855 12.2363 27.2051 12.2363C27.5246 12.2363 27.7832 12.5403 27.7832 12.916V71.3656C27.7832 71.7413 27.5246 72.0453 27.2051 72.0453Z" fill="black"/>
<path d="M24.8928 72.0453C24.5733 72.0453 24.3147 71.7413 24.3147 71.3656V14.2754C24.3147 13.8997 24.5733 13.5957 24.8928 13.5957C25.2124 13.5957 25.4709 13.8997 25.4709 14.2754V71.3656C25.4709 71.7413 25.2124 72.0453 24.8928 72.0453Z" fill="black"/>
<path d="M26.0491 73.4041C25.7295 73.4041 25.4709 73.1001 25.4709 72.7244C25.4709 72.6352 25.4858 72.5468 25.5149 72.4643C25.5439 72.3818 25.5865 72.3069 25.6402 72.2438C25.6939 72.1807 25.7576 72.1306 25.8278 72.0965C25.898 72.0624 25.9731 72.0449 26.0491 72.0449C26.2023 72.0447 26.3492 71.973 26.4576 71.8455C26.5659 71.7181 26.6269 71.5454 26.6271 71.3652C26.6271 70.9895 26.8856 70.6855 27.2052 70.6855C27.5247 70.6855 27.7833 70.9895 27.7833 71.3652C27.7833 72.4894 27.0053 73.4041 26.0491 73.4041Z" fill="black"/>
<path d="M26.0491 73.4041C25.0927 73.4041 24.3147 72.4894 24.3147 71.3652C24.3147 70.9895 24.5733 70.6855 24.8928 70.6855C25.2124 70.6855 25.4709 70.9895 25.4709 71.3652C25.4709 71.7396 25.7301 72.0449 26.0491 72.0449C26.125 72.0449 26.2002 72.0624 26.2703 72.0966C26.3404 72.1307 26.4042 72.1807 26.4579 72.2439C26.5115 72.307 26.5541 72.3819 26.5831 72.4643C26.6122 72.5468 26.6271 72.6352 26.6271 72.7244C26.6271 73.1001 26.3685 73.4041 26.0491 73.4041Z" fill="black"/>
<path d="M91.9511 76.123H26.0491C25.7295 76.123 25.4709 75.8191 25.4709 75.4434C25.4709 75.0677 25.7295 74.7637 26.0491 74.7637H91.9513C92.2708 74.7637 92.5294 75.0677 92.5294 75.4434C92.5294 75.8191 92.2707 76.123 91.9511 76.123Z" fill="black"/>
<path d="M95.4198 12.2363H29.5176C29.198 12.2363 28.9395 11.9323 28.9395 11.5566C28.9395 11.1809 29.198 10.877 29.5176 10.877H95.4199C95.4958 10.8769 95.571 10.8945 95.6412 10.9286C95.7113 10.9627 95.7751 11.0128 95.8288 11.0759C95.8824 11.1391 95.925 11.214 95.954 11.2965C95.9831 11.379 95.998 11.4674 95.9979 11.5566C95.9979 11.6459 95.983 11.7343 95.9539 11.8168C95.9249 11.8992 95.8823 11.9742 95.8286 12.0373C95.7749 12.1004 95.7112 12.1505 95.641 12.1846C95.5709 12.2188 95.4957 12.2364 95.4198 12.2363Z" fill="black"/>
<path d="M90.795 25.8294H36.4546C36.135 25.8294 35.8765 25.5254 35.8765 25.1497V16.9941C35.8765 16.6184 36.135 16.3145 36.4546 16.3145H90.7952C90.8711 16.3144 90.9463 16.332 91.0164 16.3661C91.0866 16.4002 91.1503 16.4503 91.204 16.5134C91.2577 16.5766 91.3002 16.6515 91.3293 16.734C91.3583 16.8165 91.3732 16.9049 91.3731 16.9941V25.1499C91.3731 25.2391 91.3582 25.3275 91.3291 25.41C91.3001 25.4924 91.2575 25.5673 91.2038 25.6304C91.1501 25.6935 91.0864 25.7436 91.0162 25.7777C90.9461 25.8119 90.8709 25.8294 90.795 25.8294ZM37.0327 24.4702H90.217V17.6737H37.0327V24.4702Z" fill="black"/>
<path d="M87.3263 21.751H39.9231C39.6035 21.751 39.345 21.447 39.345 21.0713C39.345 20.6958 39.6035 20.3916 39.9231 20.3916H87.3263C87.6459 20.3916 87.9044 20.6956 87.9044 21.0713C87.9044 21.447 87.6459 21.751 87.3263 21.751Z" fill="black"/>
</svg>
