<svg width="120" height="97" viewBox="0 0 120 97" fill="none" xmlns="http://www.w3.org/2000/svg">
<rect width="120" height="96.6606" rx="48.3303" fill="#04ADD7" fill-opacity="0.5"/>
<g clip-path="url(#clip0_772_6)">
<path d="M84.0022 30.982V58.6605C84.0022 59.5505 83.1057 60.2718 81.9996 60.2718C80.8935 60.2718 79.997 59.5505 79.997 58.6605V30.982C79.997 30.092 80.8935 29.3707 81.9996 29.3707C83.1057 29.3707 84.0022 30.0922 84.0022 30.982ZM77.867 19.244C76.7609 19.244 75.8644 19.9653 75.8644 20.8552C75.8644 21.7452 76.7609 22.4665 77.867 22.4665C79.0414 22.4665 79.9968 23.2354 79.9968 24.1803C79.9968 25.0703 80.8933 25.7916 81.9994 25.7916C83.1054 25.7916 84.0019 25.0703 84.0019 24.1803C84.0022 21.4584 81.25 19.244 77.867 19.244ZM50.4314 73.8916H33.3729C32.1981 73.8916 31.2422 73.1226 31.2422 72.1775V24.1803C31.2422 23.2354 32.1981 22.4665 33.3729 22.4665H69.1218C70.2279 22.4665 71.1243 21.7452 71.1243 20.8552C71.1243 19.9653 70.2279 19.244 69.1218 19.244H33.3729C29.9897 19.244 27.2371 21.4584 27.2371 24.1803V72.1775C27.2371 74.8995 29.9897 77.1141 33.3729 77.1141H50.4314C51.5375 77.1141 52.434 76.3928 52.434 75.5028C52.434 74.6129 51.5373 73.8916 50.4314 73.8916ZM77.867 13C76.7609 13 75.8644 13.7213 75.8644 14.6113C75.8644 15.5012 76.7609 16.2225 77.867 16.2225C83.3208 16.2225 87.7578 19.7923 87.7578 24.1805C87.7578 25.0705 88.6543 25.7918 89.7604 25.7918C90.8665 25.7918 91.763 25.0705 91.763 24.1805C91.7632 18.0157 85.5294 13 77.867 13ZM82.253 71.6924L85.0655 72.1389C86.1505 72.3116 87.2036 71.7429 87.4179 70.8699C87.6319 69.9968 86.9259 69.1496 85.8407 68.9772L78.3071 67.7811C77.7203 67.6879 77.1412 67.8119 76.7004 68.0835C76.2903 68.3361 76.0324 68.6954 75.9474 69.0798L74.468 75.1111C74.2539 75.9841 74.9599 76.8314 76.0451 77.0038C77.128 77.1744 78.1831 76.608 78.3974 75.7348L78.9437 73.5075C80.9836 75.9731 83.3838 78.8757 84.1181 79.77H75.2182C75.1715 79.77 75.125 79.7712 75.0792 79.7737C72.0148 79.7773 62.1598 79.7803 59.5006 79.77C59.4683 79.7698 59.4365 79.7698 59.4051 79.7696L63.3798 74.9645C63.3815 74.9625 63.3833 74.9604 63.3849 74.9582L63.8746 74.3635C65.7817 72.047 70.2483 66.6223 71.4933 65.1356C71.5576 65.059 71.6495 64.9494 71.7534 64.8288C71.8121 64.8968 71.8737 64.9693 71.9387 65.0463C72.5604 65.7826 73.8058 65.974 74.7205 65.474C75.6352 64.974 75.8735 63.9719 75.2521 63.2358C74.3878 62.2121 73.4945 61.1535 71.9901 61.0457C71.1154 60.9836 70.3026 61.2595 69.5648 61.8664C69.1338 62.2207 68.7133 62.6903 68.173 63.3337C66.9181 64.832 62.4457 70.2641 60.5359 72.5838L60.0495 73.1744C60.0493 73.1747 60.0488 73.1753 60.0484 73.1758L55.8443 78.2581C54.9341 79.3822 53.9931 80.5446 54.7966 81.7447C55.6227 82.978 57.4969 82.9851 59.481 82.9928C60.8512 82.998 64.1229 83 67.3969 83C70.5917 83 73.7886 82.9982 75.2209 82.9964C75.2656 82.9964 75.3099 82.9952 75.3542 82.9927H84.1848C86.1031 82.9807 87.9154 82.9692 88.7275 81.747C89.5332 80.5344 88.5553 79.3358 87.6094 78.1768C87.1132 77.5686 84.4652 74.366 82.253 71.6924ZM57.6282 66.8164C57.6282 65.9264 56.7317 65.2051 55.6256 65.2051H55.614C54.508 65.2051 53.617 65.9264 53.617 66.8164C53.617 67.7063 54.5195 68.4276 55.6254 68.4276C56.7313 68.4276 57.6282 67.7061 57.6282 66.8164ZM59.819 29.8613C59.819 28.9713 58.9225 28.25 57.8164 28.25H53.423C52.3169 28.25 51.4205 28.9713 51.4205 29.8613C51.4205 30.7512 52.3169 31.4725 53.423 31.4725H57.8164C58.9225 31.4725 59.819 30.751 59.819 29.8613Z" fill="black"/>
</g>
<defs>
<clipPath id="clip0_772_6">
<rect width="87" height="70" fill="white" transform="translate(16 13)"/>
</clipPath>
</defs>
</svg>
