<svg width="120" height="97" viewBox="0 0 120 97" fill="none" xmlns="http://www.w3.org/2000/svg">
<rect width="120" height="96.6606" rx="48.3303" fill="#A000B9" fill-opacity="0.5"/>
<path d="M95.3633 34.5464H84.4532V25.9637L71.3248 13H48.0863V34.5464H37.1762C36.2117 34.5464 35.2867 34.9247 34.6047 35.5982C33.9227 36.2716 33.5395 37.185 33.5395 38.1374V41.9009C34.1469 41.847 34.7397 41.7249 35.3615 41.7249C35.9798 41.7249 36.5689 41.847 37.1762 41.9009V38.1374H95.3633V63.2749H84.4532V59.6838H88.0899V52.5017H53.0904C53.6877 53.6487 54.1677 54.8517 54.5233 56.0928H80.8165V74.0481H61.1239L64.7605 77.6391H84.4532V66.866H95.3633C96.3278 66.866 97.2528 66.4876 97.9348 65.8142C98.6169 65.1407 99 64.2273 99 63.2749V38.1374C99 37.185 98.6169 36.2716 97.9348 35.5982C97.2528 34.9247 96.3278 34.5464 95.3633 34.5464ZM69.9065 16.5911L80.8165 27.3643H69.9065V16.5911ZM51.723 34.5464V16.5911H66.2698V30.9553H80.8165V34.5464H51.723ZM58.9964 63.2749V59.6838H73.5432V63.2749H58.9964ZM58.9964 66.866H73.5432V70.457H58.9964V66.866ZM91.7266 45.3196H88.0899V41.7285H91.7266V45.3196ZM50.9775 73.5094L50.5265 73.9547L48.079 71.5379C50.3739 68.6795 51.6176 65.1363 51.6065 61.4886C51.5954 57.8409 50.3302 54.3051 48.018 51.4604C45.7058 48.6156 42.4838 46.6305 38.8798 45.8303C35.2758 45.0301 31.5033 45.4623 28.1805 47.0559C24.8577 48.6495 22.1815 51.3102 20.5902 54.6021C18.9989 57.894 18.587 61.6219 19.4218 65.1752C20.2567 68.7285 22.2888 71.8965 25.1854 74.1603C28.0819 76.4241 31.6712 77.6494 35.3652 77.6356C39.0866 77.6212 42.6898 76.3431 45.5697 74.0158L48.0172 76.4325L47.5444 76.8958C47.0899 77.3449 46.8345 77.954 46.8345 78.589C46.8345 79.224 47.0899 79.833 47.5444 80.2822L58.7018 91.296C58.9266 91.5191 59.1937 91.6962 59.488 91.817C59.7823 91.9378 60.0978 92 60.4165 92C60.7352 92 61.0508 91.9378 61.345 91.817C61.6393 91.6962 61.9065 91.5191 62.1312 91.296L65.5606 87.9132C65.7861 87.691 65.9651 87.4271 66.0872 87.1366C66.2092 86.846 66.2721 86.5346 66.2721 86.22C66.2721 85.9054 66.2092 85.594 66.0872 85.3034C65.9651 85.0129 65.7861 84.749 65.5606 84.5268L54.4069 73.5094C53.9516 73.0614 53.335 72.8099 52.6922 72.8099C52.0494 72.8099 51.4328 73.0614 50.9775 73.5094ZM22.6367 61.4758C22.6367 58.9899 23.3833 56.5599 24.7819 54.493C26.1805 52.426 28.1684 50.8151 30.4942 49.8638C32.82 48.9125 35.3793 48.6636 37.8484 49.1486C40.3174 49.6335 42.5854 50.8306 44.3655 52.5883C46.1456 54.3461 47.3579 56.5856 47.849 59.0237C48.3401 61.4618 48.0881 63.989 47.1247 66.2856C46.1613 68.5822 44.5299 70.5452 42.4367 71.9263C40.3435 73.3074 37.8826 74.0445 35.3652 74.0445C31.9906 74.0407 28.7553 72.7153 26.3691 70.359C23.9829 68.0027 22.6406 64.808 22.6367 61.4758ZM62.1312 86.2182L60.4183 87.9096L50.9738 78.5908L52.694 76.8922L62.1312 86.2182Z" fill="black"/>
</svg>
