<svg width="120" height="97" viewBox="0 0 120 97" fill="none" xmlns="http://www.w3.org/2000/svg">
<rect width="120" height="96.6606" rx="48.3303" fill="#A000B9" fill-opacity="0.5"/>
<g clip-path="url(#clip0_772_4)">
<path d="M101 80.71H22V83.0003H101V80.71Z" fill="black"/>
<path d="M75.5161 69.258H72.9677V66.9676H75.5161V64.6773H72.9677V62.387H75.5161V60.0967H72.9677V58.0491C78.5665 54.6228 81.8871 49.0127 81.8871 42.9193C81.8871 32.8166 72.7409 24.5967 61.5 24.5967C50.2591 24.5967 41.1129 32.8166 41.1129 42.9193C41.1129 49.0127 44.4335 54.6228 50.0323 58.0491V60.0967H47.4839V62.387H50.0323V64.6773H47.4839V66.9676H50.0323V69.258H47.4839V73.8386H22V74.9838V76.1289V78.4193H24.5484V76.1289H27.0968V78.4193H29.6452V76.1289H32.1935V78.4193H34.7419V76.1289H37.2903V78.4193H39.8387V76.1289H42.3871V78.4193H44.9355V76.1289H47.4839V78.4193H50.0323V76.1289H52.5806V78.4193H55.129V76.1289H57.6774V78.4193H60.2258V76.1289H62.7742V78.4193H65.3226V76.1289H67.871V78.4193H70.4194V76.1289H72.9677V78.4193H75.5161V76.1289H78.0645V78.4193H80.6129V76.1289H83.1613V78.4193H85.7097V76.1289H88.2581V78.4193H90.8064V76.1289H93.3548V78.4193H95.9032V76.1289H98.4516V78.4193H101V76.1289V74.9838V73.8386H75.5161V69.258ZM43.6613 42.9193C43.6613 34.0786 51.6632 26.887 61.5 26.887C71.3368 26.887 79.3387 34.0786 79.3387 42.9193C79.3387 48.4355 76.2271 53.4994 71.0119 56.4642L70.4194 56.8009V60.0967H62.7742V47.3373C64.9671 46.8254 66.5968 45.0481 66.5968 42.9193C66.5968 40.393 64.3109 38.3386 61.5 38.3386C58.6891 38.3386 56.4032 40.393 56.4032 42.9193C56.4032 45.0481 58.0329 46.8254 60.2258 47.3373V60.0967H52.5806V56.8009L51.9881 56.4642C46.7729 53.4994 43.6613 48.4355 43.6613 42.9193ZM52.5806 64.6773V62.387H70.4194V64.6773H52.5806ZM70.4194 66.9676V69.258H52.5806V66.9676H70.4194ZM61.5 45.2096C60.0946 45.2096 58.9516 44.1824 58.9516 42.9193C58.9516 41.6561 60.0946 40.6289 61.5 40.6289C62.9054 40.6289 64.0484 41.6561 64.0484 42.9193C64.0484 44.1824 62.9054 45.2096 61.5 45.2096ZM72.9677 73.8386H50.0323V71.5483H72.9677V73.8386Z" fill="black"/>
<path d="M97.1774 12C94.7794 12 92.6388 12.9986 91.2372 14.5549L84.4355 18.2228V23.7986L85.2332 24.8739L79.8828 28.2395L81.343 30.1165L86.6462 26.7795L87.4401 27.849L92.2336 29.2851L98.8046 25.7419H101V23.4516H97.1774C94.3666 23.4516 92.0807 21.3972 92.0807 18.871C92.0807 16.3447 94.3666 14.2903 97.1774 14.2903H101V12H97.1774ZM94.6074 25.3343L91.9265 26.7795L89.0748 25.9252L86.9839 23.1046V19.5191L89.5807 18.1186C89.5501 18.366 89.5323 18.6167 89.5323 18.871C89.5323 21.8484 91.6538 24.3826 94.6074 25.3343Z" fill="black"/>
<path d="M93.3547 18.871C93.3547 20.7651 95.0698 22.3065 97.1773 22.3065C99.2848 22.3065 101 20.7651 101 18.871C101 16.9769 99.2848 15.4355 97.1773 15.4355C95.0698 15.4355 93.3547 16.9769 93.3547 18.871ZM98.4515 18.871C98.4515 19.5032 97.8807 20.0162 97.1773 20.0162C96.474 20.0162 95.9031 19.5032 95.9031 18.871C95.9031 18.2389 96.474 17.7259 97.1773 17.7259C97.8807 17.7259 98.4515 18.2389 98.4515 18.871Z" fill="black"/>
<path d="M30.9194 21.1613H34.7419C36.4009 21.1613 37.8025 20.2005 38.3301 18.871H44.3239L49.0371 24.1673L51.0287 22.7359L45.5471 16.5806H38.3288C37.8025 15.2511 36.4009 14.2903 34.7419 14.2903H30.9194V12H22V14.2903H28.371V21.1613H22V23.4516H30.9194V21.1613ZM30.9194 16.5806H34.7419C35.4453 16.5806 36.0161 17.0937 36.0161 17.7258C36.0161 18.3579 35.4453 18.871 34.7419 18.871H30.9194V16.5806Z" fill="black"/>
<path d="M55.4376 23.4164L60.5337 22.2715L59.9161 20.0509L54.8199 21.1958L55.4376 23.4164Z" fill="black"/>
<path d="M56.1912 16.0645L54.0706 14.7939L51.5218 18.2302L53.6424 19.5007L56.1912 16.0645Z" fill="black"/>
<path d="M45.8361 27.6957L44.0342 26.0762L40.2113 29.5119L42.0133 31.1314L45.8361 27.6957Z" fill="black"/>
<path d="M43.6612 22.3066H38.5645V24.597H43.6612V22.3066Z" fill="black"/>
<path d="M32.1935 63.5323C37.1107 63.5323 41.1129 59.9353 41.1129 55.5161C41.1129 51.097 37.1107 47.5 32.1935 47.5C28.7405 47.5 25.6353 49.3174 24.1687 52.0806H22V54.371H32.1935C32.8969 54.371 33.4677 54.884 33.4677 55.5161C33.4677 56.1483 32.8969 56.6613 32.1935 56.6613H22V58.9516H24.1687C25.6353 61.7149 28.7405 63.5323 32.1935 63.5323ZM32.1935 58.9516C34.3011 58.9516 36.0161 57.4102 36.0161 55.5161C36.0161 53.622 34.3011 52.0806 32.1935 52.0806H27.1095C28.292 50.6675 30.1625 49.7903 32.1935 49.7903C35.7065 49.7903 38.5645 52.3589 38.5645 55.5161C38.5645 58.6733 35.7065 61.2419 32.1935 61.2419C30.1625 61.2419 28.292 60.3647 27.1095 58.9516H32.1935Z" fill="black"/>
<path d="M91.2436 51.999L81.8872 53.4007V59.9212L91.2436 61.3229L92.6083 60.0965H101V57.8061H91.5532L90.3695 58.87L84.4356 57.9813V55.3406L90.3695 54.452L91.5532 55.5158H101V53.2255H92.6083L91.2436 51.999Z" fill="black"/>
</g>
<defs>
<clipPath id="clip0_772_4">
<rect width="79" height="71" fill="white" transform="translate(22 12)"/>
</clipPath>
</defs>
</svg>
