<svg width="120" height="97" viewBox="0 0 120 97" fill="none" xmlns="http://www.w3.org/2000/svg">
<rect width="120" height="96.6606" rx="48.3303" fill="#A000B9" fill-opacity="0.5"/>
<path d="M41 50.7332H48.6C49.2991 50.7332 49.8666 50.233 49.8666 49.6166C49.8666 49.0003 49.2991 48.5 48.6 48.5H42.2666V46.2666H43.5332C44.2324 46.2666 44.7999 45.7663 44.7999 45.15C44.7999 44.5337 44.2324 44.0334 43.5332 44.0334H42.2666V41.7999H43.5332C44.2324 41.7999 44.7999 41.2996 44.7999 40.6832C44.7999 40.0669 44.2324 39.5666 43.5332 39.5666H42.2666V37.3332H48.6C49.2991 37.3332 49.8666 36.833 49.8666 36.2166C49.8666 35.6003 49.2991 35.1 48.6 35.1H42.2666V32.8666H43.5332C44.2324 32.8666 44.7999 32.3663 44.7999 31.75C44.7999 31.1337 44.2324 30.6334 43.5332 30.6334H42.2666V28.3999H43.5332C44.2324 28.3999 44.7999 27.8996 44.7999 27.2832C44.7999 26.6669 44.2324 26.1666 43.5332 26.1666H42.2666V23.9332H48.6C49.2991 23.9332 49.8666 23.433 49.8666 22.8166C49.8666 22.2003 49.2991 21.6999 48.6 21.6999H42.2666V17.2332H60V49.6166C60 50.233 60.5674 50.7332 61.2666 50.7332C61.9657 50.7332 62.5332 50.233 62.5332 49.6166V16.1166C62.5332 15.5003 61.9657 15 61.2666 15H41C40.3009 15 39.7334 15.5003 39.7334 16.1166V49.6166C39.7334 50.233 40.3009 50.7332 41 50.7332Z" fill="black"/>
<path d="M23.2666 50.7334C23.9658 50.7334 24.5332 50.2331 24.5332 49.6168V20.5834C24.5332 18.9552 26.4864 17.2334 28.3332 17.2334H35.9332C36.6323 17.2334 37.1998 16.7331 37.1998 16.1168C37.1998 15.5004 36.6325 15 35.9334 15H28.3334C25.078 15 22 17.7135 22 20.5834V49.6168C22 50.2331 22.5675 50.7334 23.2666 50.7334Z" fill="black"/>
<path d="M79 28.4004C78.3009 28.4004 77.7334 28.9007 77.7334 29.517V49.617C77.7334 50.2334 78.3009 50.7336 79 50.7336C79.6992 50.7336 80.2666 50.2334 80.2666 49.617V29.517C80.2666 28.9007 79.6992 28.4004 79 28.4004Z" fill="black"/>
<path d="M71.3999 29.517V49.617C71.3999 50.2334 71.9674 50.7336 72.6665 50.7336C73.3657 50.7336 73.9331 50.2334 73.9331 49.617V29.517C73.9331 28.9007 73.3657 28.4004 72.6665 28.4004C71.9674 28.4004 71.3999 28.9007 71.3999 29.517Z" fill="black"/>
<path d="M73.9334 79.7665H72.6668V78.6498C72.6668 78.0335 72.0993 77.5332 71.4002 77.5332C70.7011 77.5332 70.1336 78.0335 70.1336 78.6498V79.7665H67.6001V78.6498C67.6001 78.0335 67.0326 77.5332 66.3334 77.5332C65.6343 77.5332 65.0668 78.0335 65.0668 78.6498V79.7665H62.5334V78.6498C62.5334 78.0335 61.966 77.5332 61.2668 77.5332C60.5677 77.5332 60.0002 78.0335 60.0002 78.6498V79.7665H57.4668V78.6498C57.4668 78.0335 56.8994 77.5332 56.2002 77.5332C55.5011 77.5332 54.9336 78.0335 54.9336 78.6498V79.7665H52.4001V78.6498C52.4001 78.0335 51.8326 77.5332 51.1335 77.5332C50.4343 77.5332 49.8668 78.0335 49.8668 78.6498V79.7665H47.3335V78.6498C47.3335 78.0335 46.766 77.5332 46.0669 77.5332C45.3677 77.5332 44.8002 78.0335 44.8002 78.6498V79.7665H42.2669V78.6498C42.2669 78.0335 41.6994 77.5332 41.0003 77.5332C40.3011 77.5332 39.7336 78.0335 39.7336 78.6498V79.7665H37.2001V78.6498C37.2001 78.0335 36.6326 77.5332 35.9335 77.5332C35.2344 77.5332 34.6669 78.0335 34.6669 78.6498V79.7665H32.1335V78.6498C32.1335 78.0335 31.566 77.5332 30.8669 77.5332C30.1677 77.5332 29.6001 78.0335 29.6001 78.6498V79.7665H28.3335C27.6344 79.7665 27.0669 80.2667 27.0669 80.8831C27.0669 81.4994 27.6342 81.9998 28.3335 81.9998H73.9334C74.6326 81.9998 75.2 81.4996 75.2 80.8832C75.2 80.2669 74.6326 79.7665 73.9334 79.7665Z" fill="black"/>
<path d="M66.3332 50.7336C67.0323 50.7336 67.5998 50.2333 67.5998 49.617V25.3707L72.6664 18.2241L76.7147 23.9336H71.3998C70.7006 23.9336 70.1332 24.4339 70.1332 25.0502C70.1332 25.6666 70.7006 26.1668 71.3998 26.1668H78.9998C79.4608 26.1668 79.8839 25.9469 80.1081 25.5917C80.3311 25.2366 80.3185 24.8022 80.074 24.4583L73.7406 15.5251C73.2771 14.8718 72.056 14.8718 71.5923 15.5251L65.2589 24.4583C65.1335 24.6359 65.0664 24.8402 65.0664 25.0502V49.6168C65.0664 50.2333 65.6339 50.7336 66.3332 50.7336Z" fill="black"/>
<path d="M91.6665 15H78.9999C78.3008 15 77.7333 15.5003 77.7333 16.1166C77.7333 16.733 78.3008 17.2332 78.9999 17.2332H91.6665C93.5133 17.2332 95.4665 18.9551 95.4665 20.5832V60.7832C95.4665 62.4114 93.5133 64.1332 91.6665 64.1332H28.3334C26.4865 64.1332 24.5334 62.4114 24.5334 60.7832V55.2H91.6666C92.3658 55.2 92.9333 54.6997 92.9333 54.0834C92.9333 53.467 92.3658 52.9668 91.6666 52.9668H23.2666C22.5675 52.9668 22 53.467 22 54.0834V60.7834C22 63.6533 25.078 66.3668 28.3334 66.3668H91.6666C94.922 66.3668 98 63.6533 98 60.7834V20.5834C97.9999 17.7135 94.9219 15 91.6665 15Z" fill="black"/>
<path d="M57.4666 59.667C57.4666 60.8986 58.6027 61.9003 59.9999 61.9003C61.397 61.9003 62.5333 60.8988 62.5333 59.667C62.5333 58.4353 61.3972 57.4336 59.9999 57.4336C58.6028 57.4337 57.4666 58.4353 57.4666 59.667Z" fill="black"/>
<path d="M66.3333 75.2995C67.0324 75.2995 67.5999 74.7992 67.5999 74.1829V69.7162C67.5999 69.0999 67.0324 68.5996 66.3333 68.5996C65.6341 68.5996 65.0667 69.0999 65.0667 69.7162V74.1829C65.0665 74.7992 65.634 75.2995 66.3333 75.2995Z" fill="black"/>
<path d="M54.9334 74.1829V69.7162C54.9334 69.0999 54.3659 68.5996 53.6668 68.5996C52.9676 68.5996 52.4001 69.0999 52.4001 69.7162V74.1829C52.4001 74.7992 52.9676 75.2995 53.6668 75.2995C54.3659 75.2995 54.9334 74.7992 54.9334 74.1829Z" fill="black"/>
<path d="M87.8663 75.2998H85.333C82.5386 75.2998 80.2664 77.3031 80.2664 79.7664V80.8831C80.2664 81.4994 80.8338 81.9997 81.533 81.9997H91.6663C92.3655 81.9997 92.933 81.4994 92.933 80.8831V79.7664C92.9331 77.3031 90.6607 75.2998 87.8663 75.2998ZM82.7997 79.7664C82.7997 78.5348 83.9359 77.5331 85.3331 77.5331H87.8665C89.2636 77.5331 90.3999 78.5347 90.3999 79.7664H82.7997Z" fill="black"/>
</svg>
