<svg width="120" height="98" viewBox="0 0 120 98" fill="none" xmlns="http://www.w3.org/2000/svg">
<rect y="0.716797" width="120" height="96.6606" rx="48.3303" fill="#04ADD7" fill-opacity="0.5"/>
<g clip-path="url(#clip0_772_2)">
<path d="M91.871 19.0645H83.2903V29.129H22V86.9999H91.871C95.2505 86.9999 98 84.1781 98 80.7096V25.3548C98 21.8863 95.2505 19.0645 91.871 19.0645ZM91.871 84.4838H24.4516V31.6451H83.2903V76.9354H91.871C93.8985 76.9354 95.5484 78.6288 95.5484 80.7096C95.5484 82.7905 93.8985 84.4838 91.871 84.4838ZM95.5484 75.6799C94.5236 74.8885 93.25 74.4193 91.871 74.4193H85.7419V21.5806H91.871C93.8985 21.5806 95.5484 23.2739 95.5484 25.3548V75.6799Z" fill="black"/>
<path d="M72.2582 54.2902H62.4517V49.2579H77.1614V41.7095H58.7743V34.1611H48.9679V41.7095H30.5808V49.2579H45.2904V54.2902H35.484V51.774H28.1292V59.3224H30.5808V74.4192H28.1292V81.9676H35.484V79.4515H45.2904V81.9676H62.4517V79.4515H72.2582V81.9676H79.613V74.4192H77.1614V59.3224H79.613V51.774H72.2582V54.2902ZM72.2582 44.2256H74.7098V46.7418H72.2582V44.2256ZM67.355 44.2256H69.8066V46.7418H67.355V44.2256ZM62.4517 44.2256H64.9033V46.7418H62.4517V44.2256ZM30.5808 54.2902H33.0324V56.8063H30.5808V54.2902ZM33.0324 79.4515H30.5808V76.9353H33.0324V79.4515ZM45.2904 76.9353H35.484V74.4192H33.0324V68.1289H42.8388V65.6127H33.0324V59.3224H35.484V56.8063H45.2904V76.9353ZM51.4195 36.6773H56.3227V41.7095H51.4195V36.6773ZM35.484 46.7418H33.0324V44.2256H35.484V46.7418ZM40.3872 46.7418H37.9356V44.2256H40.3872V46.7418ZM45.2904 46.7418H42.8388V44.2256H45.2904V46.7418ZM60.0001 46.7418V47.9998V79.4515H55.0969V61.8386H52.6453V79.4515H47.7421V47.9998V46.7418V44.2256H48.9679H58.7743H60.0001V46.7418ZM77.1614 79.4515H74.7098V76.9353H77.1614V79.4515ZM74.7098 54.2902H77.1614V56.8063H74.7098V54.2902ZM74.7098 65.6127H64.9033V68.1289H74.7098V74.4192H72.2582V76.9353H62.4517V56.8063H72.2582V59.3224H74.7098V65.6127Z" fill="black"/>
<path d="M39.1613 21.5806C41.1888 21.5806 42.8387 19.8873 42.8387 17.8065C42.8387 16.5069 42.1952 15.3583 41.2182 14.6789C42.2969 12.7541 44.3011 11.5161 46.5161 11.5161C48.7312 11.5161 50.7354 12.7541 51.8141 14.6789C50.8371 15.3583 50.1936 16.5069 50.1936 17.8065C50.1936 19.7527 51.6412 21.3404 53.4873 21.5404C54.8896 24.6013 57.8843 26.6129 61.2258 26.6129C64.5674 26.6129 67.562 24.6013 68.9643 21.5404C70.8104 21.3404 72.2581 19.7527 72.2581 17.8065C72.2581 15.7256 70.6081 14.0323 68.5807 14.0323C66.5532 14.0323 64.9032 15.7256 64.9032 17.8065C64.9032 19.106 65.5468 20.2546 66.5238 20.934C65.445 22.8588 63.4409 24.0968 61.2258 24.0968C59.0108 24.0968 57.0066 22.8588 55.9279 20.934C56.9049 20.2546 57.5484 19.106 57.5484 17.8065C57.5484 15.8602 56.1007 14.2725 54.2547 14.0725C52.8523 11.0116 49.8577 9 46.5161 9C43.1746 9 40.18 11.0116 38.7776 14.0725C36.9316 14.2725 35.4839 15.8602 35.4839 17.8065C35.4839 19.8873 37.1338 21.5806 39.1613 21.5806ZM68.5807 16.5484C69.2573 16.5484 69.8065 17.112 69.8065 17.8065C69.8065 18.5009 69.2573 19.0645 68.5807 19.0645C67.904 19.0645 67.3549 18.5009 67.3549 17.8065C67.3549 17.112 67.904 16.5484 68.5807 16.5484ZM53.871 16.5484C54.5476 16.5484 55.0968 17.112 55.0968 17.8065C55.0968 18.5009 54.5476 19.0645 53.871 19.0645C53.1943 19.0645 52.6452 18.5009 52.6452 17.8065C52.6452 17.112 53.1943 16.5484 53.871 16.5484ZM39.1613 16.5484C39.838 16.5484 40.3871 17.112 40.3871 17.8065C40.3871 18.5009 39.838 19.0645 39.1613 19.0645C38.4847 19.0645 37.9355 18.5009 37.9355 17.8065C37.9355 17.112 38.4847 16.5484 39.1613 16.5484Z" fill="black"/>
</g>
<defs>
<clipPath id="clip0_772_2">
<rect width="76" height="78" fill="white" transform="translate(22 9)"/>
</clipPath>
</defs>
</svg>
