<svg width="266" height="521" viewBox="0 0 266 521" fill="none" xmlns="http://www.w3.org/2000/svg">
<path d="M67.7377 350C67.3377 370.8 85.6839 387.773 91.5173 395.107L138.017 278.107L54.0171 194.107C50.8505 187.773 38.8174 180.907 16.0174 204.107C-12.4826 233.107 5.09393 267.518 8.23772 271.5C16.2375 281.633 68.2377 324 67.7377 350Z" fill="#001830"/>
<path d="M81.4892 390C69.4892 466.8 199.489 509 265.989 520.5V0C150.489 45.5 171.489 30.5 107.989 33C44.4893 35.5 27.9892 49.5 16.9892 76C5.98922 102.5 5.48922 123 62.4892 220.5C119.489 318 96.4892 294 81.4892 390Z" fill="#04ADD8"/>
</svg>
