<svg xmlns="http://www.w3.org/2000/svg" viewBox="0 0 1185.86 1183.13"><g id="Camada_2" data-name="Camada 2"><g id="Camada_1-2" data-name="Camada 1"><path d="M1100.49,595.39c21.36-8.62,43.91-14.81,66.46-19.81,16.41-3.61,21.77-10.63,17.52-26.83A100.62,100.62,0,0,1,1181.1,519c.68-14.85-7.09-17-19.46-17.78-22.53-1.34-44.93-5-67.46-6.34-9.41-.55-13.07-4.26-14.86-12.62-3.48-16.47-14.36-35.41-9.48-48.47s25.4-20.32,39.11-30.06c6.13-4.35,11.92-9.6,18.68-12.6,18.55-8.29,19.11-18.78,10-36.2-20.26-38.74-19.23-39.27-62.34-28.33-49,12.45-48.8,12.3-76.62-30.13-5.46-8.26-7.45-13.81,0-22.44,12.26-14.19,22.67-30,33.9-45,16.21-21.77,16.3-21.83-2.61-40.93-9.71-9.76-19-25.82-29.71-26.91s-23.08,12.79-34.58,20.31C921.6,210.3,921.89,210,880.31,177.3c-8.22-6.46-8.31-11.83-5.31-20.3,5.49-16,10.26-32.14,15-48.3,8.64-29.07,8.54-29.1-17.62-42.59-34.67-17.93-34.67-17.93-59.08,14-34.24,44.76-34.15,44.6-86.74,22.76-7.72-3.2-10.34-7.2-10.17-15.2.47-22.55-.15-45.12.39-67.67C717,11,715,6,704.9,5.37c-15-1-30.06-2.52-44.9-5-9.64-1.59-13.36,1.94-16.08,10.56-6.65,20.83-14.86,41.19-21.15,62.12-2.46,8.2-5.79,10.5-14.15,10.84-54.88,2.27-54.87,2.46-73.5-49.73-.21-.59-.4-1.19-.61-1.78-11.86-33-11.86-33-47.15-27.18-32.84,5.45-32.84,5.45-32.84,37.92V65.67c0,35.91,0,35.91-33.26,47.55-29.91,10.48-29.53,10.17-49.61-14.31-12.19-14.86-21.15-40.23-37.39-41.75-15.82-1.48-33.18,17.33-50.49,26-9,4.53-9.43,9-6.17,17.66,7.5,19.85,12.89,40.52,20.89,60.15,4.51,11.09,1.22,16.62-7.26,23.31-38.23,30.16-38.06,30.38-79.52,4.31-3.71-2.33-7.39-4.73-11.1-7.08C176.35,166,176.35,166,157.15,188c-27,30.82-27,30.82-2.15,63.26,31,40.62,31,40.62,1.38,82.3a10.25,10.25,0,0,0-1.13,1.49c-3.1,6.86-7.4,7.86-15,5.81C118.5,335,96.34,330.64,74.42,325.33c-8.32-2-13.8-1.5-17,8.31A346.63,346.63,0,0,1,40,377.14c-4.73,9.79-1.62,14.45,6.67,19.45,18.23,11,36,22.79,53.9,34.33,4,2.58,10.1,3.93,8.55,10.64-4.22,18.22-5.45,38.18-14.22,53.94-6,10.81-24.49,4.45-37.23,6.81a191.81,191.81,0,0,1-20.55,2.52C7.41,507.06,7.39,507,3.69,537c-.32,2.65-.8,4.84-3.69,5.65l.17,37.6c15.21.7,29.15,6.65,43.59,10.5C91.14,603.34,90.68,603.43,93.62,652c.63,10.43-3.06,14.44-11.56,18-16.17,6.74-31.95,14.45-47.9,21.74-23.43,10.74-23.43,10.73-16.43,36.46,2.59,9.66,6.32,19.18,7.59,29,1.44,11.08,7.09,12.49,16.67,11.68,21.89-1.84,43.86-2.85,65.81-4,4.81-.23,11.62-3,14.08,2,8,16.22,17,32.54,21,49.87,2.44,10.52-12.14,16-19.22,23.43-9.47,10-19.31,19.88-30.21,28.24-13.91,10.67-17.1,20.28-4.1,34.45,10.45,11.42,16.12,31.31,28.29,35.91,12.39,4.69,28.27-9.45,42.56-15.45,44.56-18.7,44.26-18.62,76.26,17.52,6.06,6.85,6.69,11.85,2.48,19.6-10.44,19.22-19.11,39.45-30.37,58.15-7.49,12.44-5.14,19.06,6.31,26.64,14.07,9.31,26.74,28.41,40.33,28.7,15,.29,26.7-20.11,39.7-31.71,33.46-29.94,33-29.72,72.51-7.29,10.07,5.72,12.66,11.43,10.27,22.27-3.22,14.62-4.56,29.66-7,44.47-6,36.25-6.05,36.26,28.58,47.75,7.13,2.37,14.77,3.68,21.35,7.06,9.27,4.73,13.09.89,17.27-7,11.42-21.49,23.94-42.45,35.32-64,4.14-7.85,8.73-10.23,17.73-9.08,47.44,6.1,47.07,5.92,56.07,53,3.27,17,.43,40.19,12.69,49.26,11.1,8.19,32.53,2.46,49.41,2.85a53.24,53.24,0,0,1,5.65,0c7.55,1.08,11.1-1.63,12.38-9.63,2.47-15.41,6.39-30.58,9.33-45.92,8.84-46,8.79-45.72,55.93-49.37,9-.69,13.47,2,17.47,9.62,8.63,16.68,18.1,32.93,27.28,49.32,14.45,25.75,14.45,25.73,41.45,16,8.24-3,16.32-6.63,24.79-8.69,11-2.68,13.12-8.72,11.12-19.08-4.19-22.1-7.09-44.46-11.19-66.59-2.21-11.79,0-18.94,12-25.18,39.25-20.48,38.79-21,71.25,7.78,14.06,12.47,28.36,33.61,42.92,34.07s29.76-20.16,44.69-31.54a13.66,13.66,0,0,1,1.52-1.1c6.87-3.82,7.24-8.08,3.24-15.08-11.87-20.57-22.11-42.11-34.49-62.35-7.27-11.9-7.43-19.19,3.38-29.84,31.91-31.4,31.19-31.9,72.19-14.4,16.48,7.05,35.64,23.87,49,18.11,14.43-6.22,21.16-29.4,32.16-44.58,5.14-7.15,4.69-11.28-1.86-17.15-18.69-16.72-36.33-34.62-55.18-51.14-8.75-7.67-7.09-13.65-4.16-23.93,10.15-35.64,31.9-48.31,67.31-39.64a6.58,6.58,0,0,0,1.88.07c16.64-.84,37.57,10.54,48.64-.84,10.24-10.52,9.11-31.59,14.3-47.59,3.78-11.64-.28-16.41-10.93-20.64-22.1-8.76-43.31-19.81-65.52-28.25-11.93-4.56-11.67-13.29-8.93-21C1092.34,627.21,1078,604.46,1100.49,595.39ZM637.64,270.22c0-7.9-1-14.37,11.53-12.62,77,10.69,165.37,63.2,209.25,125.47C819,406,779.5,428.82,740.18,451.9c-6,3.52-10.68,3.94-17.06.21q-37.23-21.8-75.22-42.29c-7.47-4.06-10.5-8.83-10.39-17.6C638,351.56,637.74,310.9,637.64,270.22ZM532,261.1c12-2,19.28-1.32,18.64,15.1-1.46,37.44-.91,75-.21,112.45.2,10.87-3.08,17.29-12.76,22.16-12.82,6.45-26.29,12.65-37.17,21.71-30.7,25.59-58.4,22.16-89.16-1.34-23.15-17.68-50.17-30.33-75.43-45.28-1-.61-1.72-1.78-3.4-3.58C383.13,315.88,449.2,275,532,261.1ZM293.11,711c-9.75,5.92-11.53,3.16-14.92-6.12-30.38-83.28-25.64-165.51,6-248.71,41,23.37,80.06,45.87,119.43,67.79,6.87,3.83,7.59,8.76,7.55,15.33-.17,30.68-.42,61.37.11,92,.14,8.11-2.8,12.24-9.53,16.09C365.32,668.28,329,689.22,293.11,711ZM535.64,922.72C463.42,910,402.4,876.83,352.05,823.92c-9.49-9.92-18.3-20.56-28.2-31.75,40.73-23.64,80.71-46.75,120.55-70.11,4.64-2.72,7.81-1.55,11.88.87q42.77,25.46,85.81,50.46c6.14,3.56,8.33,8,8.27,15.09-.32,40.69-.71,81.39.15,122.06C550.78,923.22,547,924.71,535.64,922.72ZM595,688.08c-54.12.59-97.7-44.34-97.3-100.3.38-52.32,43.74-94.07,97.33-93.72,52.7.34,94.64,43.17,94.45,96.45C689.31,642.87,646.06,687.51,595,688.08ZM857.19,801c-54.6,66.63-124.26,107.36-208.79,123.63-9.33,1.79-10.86-1.33-10.77-9.21.2-21.3,0-42.58,0-63.86,0-7.51,1.2-15.25-.2-22.5-7.31-37.84,6.92-62.11,43-76.69,20.11-8.14,38-29.81,57.12-30,18.92-.21,38.08,18.81,57.06,29.52,19.63,11.07,39,22.62,58.84,33.3C861.65,789.61,864.34,792.31,857.19,801ZM910,704.94c-3.44,9.83-6.1,11.32-15.32,5.77-35.89-21.63-72.21-42.55-108.58-63.38-6.78-3.88-9.65-8.41-9.33-16.33.57-15,.15-30,.15-45C763,539.34,788,516,827.05,498.72c22.76-10.07,43.74-24.26,65.1-37.29,8.23-5,11-3.46,14.38,5.29C937.39,545.78,937.9,625,910,704.94Z"/></g></g></svg>