<svg width="100" height="100" viewBox="0 0 100 100" fill="none" xmlns="http://www.w3.org/2000/svg">
<circle cx="50" cy="50" r="50" fill="#000D19"/>
<g clip-path="url(#clip0_279_65)">
<path d="M25.5344 44.9338L27.8241 45.0279C28.0618 40.8013 29.8628 36.8642 33.0259 33.6445L31.2831 32.3408C27.7842 35.9037 25.7987 40.2548 25.5344 44.9338Z" fill="white"/>
<path d="M59.9134 52.973V38.9865H64.801C66.1001 41.1291 66.7947 43.533 66.7947 45.9797C66.7947 48.4262 66.1001 50.8268 64.801 52.973H59.9134ZM57.6188 52.973H39.2674C38.6357 52.973 38.1204 52.5241 38.1204 51.9741C38.1204 51.4232 38.6357 50.9751 39.2674 50.9751H42.708V48.9765H39.2674C38.6357 48.9765 38.1204 48.5276 38.1204 47.9776C38.1204 47.4273 38.6357 46.9786 39.2674 46.9786H42.708V44.9808H39.2674C38.6357 44.9808 38.1204 44.5319 38.1204 43.9819C38.1204 43.4316 38.6357 42.9829 39.2674 42.9829H42.708V40.9851H39.2674C38.6357 40.9851 38.1204 40.5362 38.1204 39.9854C38.1204 39.4353 38.6357 38.9865 39.2674 38.9865H57.6188V52.973ZM54.0657 61.8778C54.0933 61.9132 54.1238 61.94 54.1555 61.9676C55.9923 63.5789 56.8035 65.87 56.3462 68.0943L50.8803 63.3451C50.4322 62.9549 49.7068 62.9549 49.263 63.3451L44.3967 67.5789C43.9489 67.9692 43.9489 68.6019 44.3967 68.9919L49.8496 73.7527C48.721 73.9243 47.5518 73.8816 46.4221 73.6203C45.0518 73.327 43.7925 72.7032 42.7705 71.8135C41.5969 70.7986 40.8265 69.5146 40.5439 68.0943C40.0868 65.8468 40.9204 63.5441 42.7754 61.9322C42.9407 61.7846 43.1112 61.6441 43.3398 61.4762C43.3755 61.4522 43.4876 61.3705 43.5192 61.343C43.7343 61.1562 43.855 60.8984 43.855 60.6327V54.9708H50.7372V59.4659C50.7372 59.8719 51.024 60.2427 51.4586 60.3911C52.4484 60.7384 53.3218 61.2378 54.0657 61.8778ZM41.3866 29.9411C39.5358 28.3291 38.7205 26.0308 39.1685 23.7832L44.6254 28.5245C45.0784 28.9147 45.7997 28.9147 46.2476 28.5245L51.1138 24.2863C51.5616 23.9005 51.5616 23.2678 51.1138 22.8741L45.6609 18.1168C45.862 18.0857 46.0682 18.0582 46.2744 18.043C48.524 17.8201 50.6251 18.4607 52.2289 19.6623C52.2738 19.6978 52.3188 19.7289 52.3677 19.7556C52.4892 19.8498 52.6148 19.9475 52.7392 20.0568C53.676 20.8639 54.3484 21.8281 54.7332 22.9284C55.5799 25.3012 54.8953 27.9121 52.9503 29.7341C52.9189 29.7616 52.8965 29.7891 52.8699 29.8159C52.834 29.8593 52.7893 29.8941 52.726 29.9447C52.3231 30.3038 51.8525 30.6281 51.2832 30.9321C50.9434 31.1159 50.7372 31.4395 50.7372 31.7833V36.9886H43.855V32.0331C43.855 31.6661 43.6223 31.3302 43.25 31.155C42.9366 31.0066 42.6815 30.8662 42.4082 30.6867C42.0407 30.4681 41.7 30.2184 41.3866 29.9411ZM54.3484 36.9886H53.0309V36.0715L54.3484 36.9886ZM57.9278 59.0916L59.0391 60.8397C62.1398 59.3451 64.7112 57.1403 66.4813 54.4713C68.1885 51.9038 69.0885 48.9692 69.0885 45.9797C69.0885 42.9901 68.1885 40.0556 66.4813 37.4881C64.5234 34.5383 61.6338 32.1966 58.1207 30.7062L57.1176 32.5007C59.59 33.551 61.7092 35.0885 63.345 36.9886H58.0217L53.0309 33.5119V32.3255C53.528 32.0208 53.9677 31.6972 54.3658 31.3461C54.478 31.2484 54.5768 31.1586 54.6618 31.0653C57.1442 28.7156 58.0084 25.3793 56.9247 22.3391C56.432 20.9269 55.5626 19.6782 54.3574 18.6402C54.1647 18.4723 53.9718 18.3275 53.784 18.1791C53.7523 18.1559 53.7166 18.1364 53.6809 18.1132C51.5749 16.5642 48.8057 15.7831 46.0324 16.0524C45.0069 16.1465 44.003 16.3687 43.0438 16.7162C42.6947 16.845 42.4396 17.1179 42.3633 17.4458C42.2918 17.7737 42.4082 18.1089 42.6766 18.3434L48.6804 23.5842L45.4366 26.4058L39.4236 21.1766C39.1552 20.9385 38.7612 20.8444 38.3848 20.903C38.0083 20.9696 37.6941 21.1961 37.5512 21.5081C37.4032 21.8281 37.2329 22.2066 37.1298 22.5852C36.1308 25.7072 37.1389 29.0667 39.7511 31.3418C40.1633 31.7088 40.6245 32.0446 41.0683 32.3059C41.2204 32.4073 41.3866 32.5086 41.5612 32.6063V36.9886H39.2674C37.3675 36.9886 35.8258 38.3314 35.8258 39.9854C35.8258 40.7541 36.1574 41.4527 36.7043 41.984C36.1574 42.5146 35.8258 43.213 35.8258 43.9819C35.8258 44.7505 36.1574 45.4492 36.7043 45.9797C36.1574 46.5103 35.8258 47.2089 35.8258 47.9776C35.8258 48.7462 36.1574 49.4449 36.7043 49.9754C36.1574 50.5068 35.8258 51.2051 35.8258 51.9741C35.8258 53.6281 37.3675 54.9708 39.2674 54.9708H41.5612V60.1768C41.4224 60.2854 41.2877 60.3989 41.1531 60.5162C38.7695 62.5922 37.6991 65.5535 38.2859 68.4376C38.649 70.2681 39.6439 71.9265 41.1531 73.2295C42.4664 74.3732 44.0969 75.1811 45.853 75.5559C46.7089 75.7543 47.5964 75.8562 48.4791 75.8562C49.8404 75.8519 51.2026 75.6181 52.4708 75.1497C52.8207 75.0211 53.0759 74.7516 53.1473 74.4238C53.219 74.0959 53.1026 73.7608 52.834 73.5262L46.8304 68.2892L50.074 65.4638L56.087 70.693C56.3554 70.9276 56.741 71.0289 57.1084 70.9668C57.4848 70.9038 57.7982 70.6895 57.9462 70.3846C58.1248 70.0335 58.2728 69.663 58.3899 69.2649C59.3706 66.1935 58.394 62.8849 55.8402 60.6097C55.8137 60.5784 55.782 60.5511 55.7504 60.52C54.9616 59.8249 54.0484 59.2516 53.0309 58.8181V54.9708H63.349C61.9022 56.6568 60.0606 58.0651 57.9278 59.0916Z" fill="white"/>
<path d="M38.6216 60.0241L39.9123 58.3692C35.1992 55.5795 32.3851 50.9476 32.3851 45.9798C32.3851 41.1646 35.0646 36.6144 39.5541 33.8044L38.2144 32.1808C33.129 35.365 30.0913 40.524 30.0913 45.9798C30.0913 51.6106 33.281 56.8592 38.6216 60.0241Z" fill="white"/>
<path d="M16.3276 49.9754H21.2875C21.5967 51.6497 22.0978 53.2814 22.7743 54.85L18.4959 57.0041C17.9449 57.277 17.7612 57.8895 18.0745 58.3692L21.5161 63.56C21.6681 63.7903 21.9191 63.9576 22.2142 64.0276C22.5059 64.0978 22.8192 64.0595 23.0835 63.9265L27.3719 61.7649C28.5995 63.0678 29.9699 64.2622 31.4667 65.3278L28.9843 69.0657C28.8322 69.2959 28.7873 69.5695 28.8679 69.823C28.9485 70.0805 29.1413 70.2992 29.4056 70.4316L35.3695 73.4284C35.5482 73.5181 35.7452 73.5616 35.938 73.5616C36.3369 73.5616 36.7225 73.3822 36.9328 73.0622L38.0032 71.4546L36.0144 70.4549L35.5216 71.2005L31.5432 69.2027L33.9492 65.5811C34.2401 65.1438 34.1146 64.5903 33.6533 64.2854C31.7352 63.0173 30.0281 61.5303 28.572 59.8605C28.223 59.4586 27.5863 59.3495 27.0852 59.6027L22.9314 61.6946L20.6326 58.2332L24.7823 56.1457C25.2793 55.8916 25.4895 55.3573 25.2659 54.8927C24.3426 52.9846 23.7243 50.9476 23.4201 48.8519C23.3436 48.3524 22.86 47.9776 22.2815 47.9776H17.4745V43.9819H22.2815C22.86 43.9819 23.3436 43.6068 23.4201 43.1073C23.657 41.4686 24.0916 39.8573 24.7099 38.3191C24.8803 37.8942 25.064 37.4765 25.2659 37.0668C25.4895 36.6021 25.2793 36.0679 24.7823 35.8138L20.6326 33.7262L22.9314 30.2647L27.0852 32.3566C27.5822 32.61 28.223 32.4971 28.572 32.0989C30.0281 30.429 31.7352 28.9422 33.6533 27.674C34.1146 27.3692 34.2401 26.8155 33.9492 26.3782L31.5432 22.7568L35.3022 20.8718L34.1553 19.1396L29.4056 21.5277C29.1413 21.6601 28.9485 21.8787 28.8679 22.1364C28.7873 22.3898 28.8322 22.6634 28.9843 22.8936L31.4667 26.6316C29.9699 27.6971 28.5995 28.8915 27.3719 30.1945L23.0835 28.033C22.8192 27.8998 22.5059 27.8615 22.2142 27.9316C21.9191 28.0019 21.6681 28.1691 21.5161 28.3993L18.0745 33.5901C17.7612 34.07 17.9449 34.6824 18.4959 34.9553L22.7743 37.1095C22.6937 37.2934 22.6222 37.4729 22.5458 37.656C21.9865 39.0531 21.5601 40.5044 21.2875 41.984H16.3276C15.6959 41.984 15.1807 42.4328 15.1807 42.9829V48.9765C15.1807 49.5265 15.6959 49.9754 16.3276 49.9754Z" fill="white"/>
<path d="M36.0145 30.413L34.585 28.8524C33.9351 29.3012 33.3126 29.7811 32.73 30.2806L34.334 31.7088C34.8626 31.2563 35.4277 30.8227 36.0145 30.413Z" fill="white"/>
<path d="M82.8521 41.984H77.8931C77.5841 40.3097 77.0819 38.6781 76.4054 37.1095L80.6839 34.9553C81.2348 34.6824 81.4237 34.07 81.1052 33.5901L77.6647 28.3993C77.5116 28.1691 77.2615 28.0019 76.9655 27.9317C76.6698 27.8615 76.3605 27.8999 76.0964 28.033L71.8086 30.1945C70.5812 28.8916 69.2099 27.6972 67.713 26.6316L70.1957 22.8936C70.3477 22.6634 70.3926 22.3898 70.312 22.1365C70.2314 21.8788 70.0384 21.6602 69.7741 21.5277L63.8111 18.5309C63.2643 18.2537 62.5613 18.4173 62.2471 18.8972L59.2766 23.3736L61.2614 24.3725L63.6582 20.759L67.6375 22.7568L65.2314 26.3783C64.9398 26.8155 65.0653 27.3693 65.5264 27.674C67.4446 28.9422 69.1517 30.429 70.6078 32.099C70.9568 32.5007 71.5976 32.61 72.0955 32.3567L76.2484 30.2647L78.5471 33.7262L74.3984 35.8138C73.9006 36.0679 73.6903 36.6021 73.9138 37.0668C74.8373 38.9749 75.4556 41.0119 75.7606 43.1076C75.8361 43.607 76.3199 43.9819 76.8984 43.9819H81.7054V47.9776H76.8984C76.3199 47.9776 75.8361 48.3524 75.7606 48.8519C75.4556 50.9476 74.8373 52.9846 73.9138 54.8927C73.6903 55.3573 73.9006 55.8916 74.3984 56.1457L78.5471 58.2332L76.2484 61.6949L72.0955 59.6027C71.5976 59.3494 70.9568 59.4586 70.6078 59.8605C69.1517 61.5305 67.4446 63.0173 65.5264 64.2854C65.0653 64.5903 64.9398 65.144 65.2314 65.5811L67.6375 69.2027L63.6582 71.2005L62.5031 69.4559L60.5175 70.4548L62.2471 73.0621C62.4582 73.3821 62.843 73.5616 63.2418 73.5616C63.4347 73.5616 63.6317 73.5184 63.8111 73.4286L69.7741 70.4319C70.0384 70.2992 70.2314 70.0808 70.312 69.823C70.3926 69.5697 70.3477 69.2959 70.1957 69.0659L67.713 65.3278C69.2099 64.2624 70.5812 63.0678 71.8086 61.7649L76.0964 63.9265C76.3605 64.0597 76.6698 64.0981 76.9655 64.0278C77.2615 63.9576 77.5116 63.7903 77.6647 63.5603L81.1052 58.3694C81.4237 57.8894 81.2348 57.277 80.6839 57.004L76.4054 54.85C77.0819 53.2813 77.5841 51.6497 77.8931 49.9754H82.8521C83.4848 49.9754 84 49.5267 84 48.9765V42.983C84 42.4328 83.4848 41.984 82.8521 41.984Z" fill="white"/>
</g>
<defs>
<clipPath id="clip0_279_65">
<rect width="69" height="60" fill="white" transform="translate(15 16)"/>
</clipPath>
</defs>
</svg>
