<svg width="100" height="100" viewBox="0 0 100 100" fill="none" xmlns="http://www.w3.org/2000/svg">
<circle cx="50" cy="50" r="50" fill="#000D19"/>
<path d="M33.4232 18.7964C32.5993 18.7964 32 19.3956 32 20.2196V77.3732C32 78.1971 32.5993 78.7964 33.4232 78.7964H68.1049C68.9288 78.7964 69.5281 78.1971 69.5281 77.3732V20.2196C69.5281 19.3956 68.9288 18.7964 68.1049 18.7964L33.4232 18.7964ZM39.4906 26.287H61.9625V63.7402H39.4906V26.287ZM50.7266 67.4855C52.824 67.4855 54.4719 69.1335 54.4719 71.2308C54.4719 73.3282 52.824 74.9762 50.7266 74.9762C48.6292 74.9762 46.9813 73.3282 46.9813 71.2308C46.9813 69.1335 48.6292 67.4855 50.7266 67.4855Z" fill="white"/>
</svg>
