<svg width="100" height="100" viewBox="0 0 100 100" fill="none" xmlns="http://www.w3.org/2000/svg">
<circle cx="50" cy="50" r="50" fill="#000D19"/>
<path d="M75.418 19H23.5821C22.8045 19 22.174 19.5483 22.174 20.2245V77.7755C22.174 78.4517 22.8045 79 23.5821 79H75.4178C76.1954 79 76.826 78.4517 76.826 77.7755V20.2245C76.8261 19.5483 76.1956 19 75.418 19ZM24.9903 76.551V21.449H74.0097V76.551H24.9903Z" fill="white"/>
<path d="M70.507 23.4879H29.0777C28.3001 23.4879 27.6696 24.0362 27.6696 24.7124V32.9026V36.9274V62.8852C27.6696 63.5615 28.3 64.1098 29.0777 64.1098H33.478H66.1066H70.507C71.2846 64.1098 71.9151 63.5615 71.9151 62.8853V36.9273V32.9025V24.7123C71.9151 24.0362 71.2846 23.4879 70.507 23.4879ZM30.4859 34.1271H54.1077V35.703H30.4859V34.1271ZM64.6984 61.6607H34.8861V59.8839H64.6984V61.6607ZM69.0988 61.6607H67.5149V58.6593C67.5149 57.9831 66.8843 57.4348 66.1067 57.4348H60.4276C60.7594 57.2107 60.9738 56.8615 60.9738 56.468V54.6313C60.9738 53.9551 60.3432 53.4068 59.5656 53.4068C58.788 53.4068 58.1574 53.9551 58.1574 54.6313V55.2435H57.4534C56.6758 55.2435 56.0453 55.7918 56.0453 56.468C56.0453 56.8615 56.2595 57.2107 56.5915 57.4348H52.7717C53.1035 57.2107 53.3179 56.8615 53.3179 56.468C53.3179 55.7918 52.6873 55.2435 51.9097 55.2435H47.158C46.3804 55.2435 45.7498 55.7918 45.7498 56.468C45.7498 56.8615 45.9641 57.2107 46.2961 57.4348H42.4763C42.808 57.2107 43.0225 56.8615 43.0225 56.468C43.0225 55.7918 42.3919 55.2435 41.6143 55.2435H39.5021C38.7245 55.2435 38.0939 55.7918 38.0939 56.468C38.0939 56.8615 38.3082 57.2107 38.6402 57.4348H33.4778C32.7002 57.4348 32.0697 57.9831 32.0697 58.6593V61.6607H30.4859V38.1518H54.1077V41.554C54.1077 42.2302 54.7383 42.7785 55.5159 42.7785H56.0988V46.9878C56.0988 47.6639 56.7293 48.2123 57.5069 48.2123H58.1576V49.857C58.1576 50.5331 58.7882 51.0815 59.5658 51.0815C60.3433 51.0815 60.9739 50.5331 60.9739 49.857V48.2123H61.6252C62.4028 48.2123 63.0334 47.6639 63.0334 46.9878V42.7785H63.6157C64.3933 42.7785 65.0239 42.2302 65.0239 41.554V38.1517H69.0989V61.6607H69.0988ZM57.5067 40.3296H56.9238V36.9273V32.9025V31.3096H62.2073V32.9025V36.9273V40.3295H61.625H57.5067V40.3296ZM60.2168 42.7786V45.7634H58.9148V42.7786H60.2168ZM69.0987 35.7028H65.0236V34.127H69.0987V35.7028ZM69.0988 31.6781H65.0236V30.0852C65.0236 29.409 64.3931 28.8607 63.6155 28.8607H55.5158C54.7382 28.8607 54.1076 29.409 54.1076 30.0852V31.6781H30.4859V25.9369H69.0988V31.6781Z" fill="white"/>
</svg>
