<svg width="52" height="52" viewBox="0 0 52 52" fill="none" xmlns="http://www.w3.org/2000/svg">
<path d="M37.9001 14.0998C37.4858 13.6855 37.0024 13.4783 36.4499 13.4783L32.2607 13.4783L15.5958 13.4783C15.0434 13.4783 14.56 13.6855 14.1457 14.0998C13.7314 14.5141 13.5242 14.9975 13.5242 15.5499L13.5242 19.7392C13.5242 20.2916 13.7314 20.775 14.1457 21.1893C14.56 21.6036 15.0434 21.8108 15.5958 21.8108L24.2966 21.8108L12.7416 33.3657C12.3426 33.7647 12.1432 34.2557 12.1432 34.8388C12.1432 35.422 12.3426 35.913 12.7416 36.312L15.6879 39.2583C16.0869 39.6572 16.5779 39.8567 17.161 39.8567C17.7442 39.8567 18.2352 39.6572 18.6342 39.2583L30.1891 27.7033V36.404C30.1891 36.9872 30.3886 37.4782 30.7876 37.8772C31.1865 38.2762 31.6776 38.4756 32.2607 38.4756L36.4499 38.4756C37.0024 38.4756 37.4858 38.2685 37.9001 37.8542C38.3144 37.4398 38.5216 36.9565 38.5216 36.404V19.7392L38.5215 15.5499C38.5215 14.9975 38.3144 14.5141 37.9001 14.0998ZM43.6775 8.32233C46.8847 11.5295 49.0522 15.2775 50.1801 19.5665C51.3079 23.8555 51.3079 28.1445 50.1801 32.4335C49.0522 36.7225 46.8847 40.4705 43.6775 43.6777C40.4704 46.8848 36.7223 49.0523 32.4333 50.1802C28.1444 51.3081 23.8554 51.3081 19.5664 50.1802C15.2774 49.0523 11.5293 46.8848 8.3222 43.6777C5.11505 40.4705 2.94754 36.7225 1.81967 32.4335C0.6918 28.1445 0.6918 23.8555 1.81967 19.5665C2.94754 15.2775 5.11505 11.5295 8.3222 8.32233C11.5293 5.11518 15.2774 2.94768 19.5664 1.8198C23.8554 0.691933 28.1444 0.691931 32.4333 1.8198C36.7223 2.94767 40.4704 5.11518 43.6775 8.32233Z" fill="white"/>
</svg>
