<svg width="69" height="60" viewBox="0 0 69 60" fill="none" xmlns="http://www.w3.org/2000/svg">
<path d="M60.418 0H8.58212C7.80452 0 7.17395 0.54832 7.17395 1.22449V58.7755C7.17395 59.4517 7.80452 60 8.58212 60H60.4178C61.1954 60 61.826 59.4517 61.826 58.7755V1.22449C61.8261 0.54832 61.1956 0 60.418 0ZM9.99028 57.551V2.44898H59.0097V57.551H9.99028Z" fill="white"/>
<path d="M55.507 4.48792H14.0777C13.3001 4.48792 12.6696 5.03624 12.6696 5.71241V13.9026V17.9274V43.8852C12.6696 44.5615 13.3 45.1098 14.0777 45.1098H18.478H51.1066H55.507C56.2846 45.1098 56.9151 44.5615 56.9151 43.8853V17.9273V13.9025V5.71229C56.9151 5.03624 56.2846 4.48792 55.507 4.48792ZM15.4859 15.1271H39.1077V16.703H15.4859V15.1271ZM49.6984 42.6607H19.8861V40.8839H49.6984V42.6607ZM54.0988 42.6607H52.5149V39.6593C52.5149 38.9831 51.8843 38.4348 51.1067 38.4348H45.4276C45.7594 38.2107 45.9738 37.8615 45.9738 37.468V35.6313C45.9738 34.9551 45.3432 34.4068 44.5656 34.4068C43.788 34.4068 43.1574 34.9551 43.1574 35.6313V36.2435H42.4534C41.6758 36.2435 41.0453 36.7918 41.0453 37.468C41.0453 37.8615 41.2595 38.2107 41.5915 38.4348H37.7717C38.1035 38.2107 38.3179 37.8615 38.3179 37.468C38.3179 36.7918 37.6873 36.2435 36.9097 36.2435H32.158C31.3804 36.2435 30.7498 36.7918 30.7498 37.468C30.7498 37.8615 30.9641 38.2107 31.2961 38.4348H27.4763C27.808 38.2107 28.0225 37.8615 28.0225 37.468C28.0225 36.7918 27.3919 36.2435 26.6143 36.2435H24.5021C23.7245 36.2435 23.0939 36.7918 23.0939 37.468C23.0939 37.8615 23.3082 38.2107 23.6402 38.4348H18.4778C17.7002 38.4348 17.0697 38.9831 17.0697 39.6593V42.6607H15.4859V19.1518H39.1077V22.554C39.1077 23.2302 39.7383 23.7785 40.5159 23.7785H41.0988V27.9878C41.0988 28.6639 41.7293 29.2123 42.5069 29.2123H43.1576V30.857C43.1576 31.5331 43.7882 32.0815 44.5658 32.0815C45.3433 32.0815 45.9739 31.5331 45.9739 30.857V29.2123H46.6252C47.4028 29.2123 48.0334 28.6639 48.0334 27.9878V23.7785H48.6157C49.3933 23.7785 50.0239 23.2302 50.0239 22.554V19.1517H54.0989V42.6607H54.0988ZM42.5067 21.3296H41.9238V17.9273V13.9025V12.3096H47.2073V13.9025V17.9273V21.3295H46.625H42.5067V21.3296ZM45.2168 23.7786V26.7634H43.9148V23.7786H45.2168ZM54.0987 16.7028H50.0236V15.127H54.0987V16.7028ZM54.0988 12.6781H50.0236V11.0852C50.0236 10.409 49.3931 9.86073 48.6155 9.86073H40.5158C39.7382 9.86073 39.1076 10.409 39.1076 11.0852V12.6781H15.4859V6.9369H54.0988V12.6781Z" fill="white"/>
</svg>
