<svg width="100" height="100" viewBox="0 0 100 100" fill="none" xmlns="http://www.w3.org/2000/svg">
<circle cx="50" cy="50" r="50" fill="#000D19"/>
<g clip-path="url(#clip0_279_68)">
<path d="M82.4877 39.4116L79.401 38.4354V28.0004C79.3994 26.3443 77.8557 25.002 75.951 25.0006H38.6273L37.9139 21.4806C37.5831 19.8492 35.7937 18.7589 33.9167 19.0458L31.652 19.3923C29.775 19.6807 28.522 21.2365 28.8519 22.8694L29.2846 25.0006H26.4995V24.0004C26.4995 21.2387 23.9258 19.0008 20.7498 19.0008C17.5737 19.0008 15 21.2387 15 24.0004V73.9998C15.0033 76.7593 17.5754 78.9956 20.7498 78.9986H66.7429L66.7555 79L66.7655 78.9986H75.951C77.8557 78.9978 79.3994 77.6554 79.401 75.9994V52.6329L83.8628 41.975C84.2929 40.937 83.6782 39.7908 82.4877 39.4116ZM20.7498 76.999C18.8452 76.9973 17.3014 75.6552 17.2997 73.9998C17.2997 72.3422 18.8443 70.9998 20.7498 70.9998C22.6552 70.9998 24.1998 72.3422 24.1998 73.9998C24.1998 75.6558 22.6552 76.999 20.7498 76.999ZM24.1998 70.0252C22.1682 68.6573 19.3313 68.6573 17.2997 70.0252V24.0004C17.3014 22.3442 18.8452 21.0019 20.7498 21.0005C22.6544 21.0019 24.1981 22.3442 24.1998 24.0004V70.0252ZM40.4408 45.4615L35.9115 46.1567L32.1165 27.444L36.6466 26.7504L40.4408 45.4615ZM40.2554 47.5216L39.2663 51.1874L36.8947 48.0359L40.2554 47.5216ZM31.3087 21.7755C31.4825 21.5569 31.7506 21.408 32.0513 21.3629L34.316 21.015C34.3828 21.0048 34.4497 21.0005 34.5173 21.0005C35.0745 21.0012 35.5515 21.3499 35.6484 21.8278L36.2473 24.7812L31.7172 25.4763L31.1182 22.5229C31.0631 22.2614 31.1316 21.992 31.3087 21.7755ZM25.32 76.999C26.081 76.1388 26.4954 75.0842 26.4995 73.9998V27.0002H29.6898L33.8457 47.4895C33.8499 47.5105 33.8657 47.5296 33.8716 47.5514C33.8983 47.6546 33.9434 47.7524 34.0061 47.8434C34.0111 47.8492 34.0111 47.857 34.0153 47.863L38.8102 54.2352C39.0232 54.5178 39.385 54.6878 39.7734 54.687C39.8402 54.6878 39.9079 54.682 39.973 54.6712C40.4258 54.6021 40.7884 54.3043 40.8928 53.9156L42.8935 46.5017V46.4959C42.9076 46.4167 42.9101 46.3354 42.9019 46.254C42.9076 46.2039 42.9093 46.1523 42.906 46.1008V46.0993L39.0324 27.0002H75.951C76.5859 27.001 77.1005 27.4484 77.1005 28.0004V37.7076L77.0839 37.7018C70.9214 35.7522 64.1125 36.0646 58.2207 38.5676C52.3279 41.0714 47.8604 45.5509 45.8438 50.9761C41.9837 61.3276 48.3976 72.802 60.1721 76.999H25.32ZM77.1005 75.9994C77.1005 76.5508 76.5859 76.999 75.951 76.999H69.2013L77.1014 58.128V75.9994H77.1005ZM80.9149 43.1713H80.9141C80.5279 43.0486 80.0962 43.1147 79.7812 43.3442C79.4662 43.5737 79.3159 43.9318 79.3876 44.2834C79.4588 44.6357 79.7411 44.9277 80.1278 45.0497V45.0504L79.341 46.9296C78.9543 46.8074 78.5223 46.8729 78.2073 47.1024C77.8925 47.3327 77.7428 47.6908 77.8148 48.0422C77.8857 48.3945 78.1683 48.6867 78.5542 48.8087H78.555L77.9266 50.3092L77.7671 50.2583C77.3812 50.1356 76.9495 50.2025 76.6345 50.432C76.3195 50.6609 76.1692 51.0198 76.2409 51.3721C76.3129 51.7227 76.5944 52.0155 76.9811 52.1377L77.1398 52.1869L76.353 54.0676L76.1943 54.0168C75.597 53.8279 74.9386 54.0967 74.7215 54.6151C74.5042 55.1338 74.8107 55.707 75.4072 55.8959L75.5667 55.9459L74.7799 57.8258L74.6204 57.7755C74.2345 57.6535 73.8025 57.7196 73.4877 57.9486C73.1727 58.1786 73.0225 58.5375 73.0942 58.8884C73.1659 59.2415 73.4476 59.5326 73.8344 59.6548L73.9931 59.7049L73.206 61.5853L73.0473 61.5345C72.45 61.3465 71.7919 61.6138 71.5745 62.1323C71.3575 62.6518 71.664 63.2247 72.2605 63.4135L72.42 63.4639L71.6332 65.3435L71.4745 65.2926C70.878 65.1046 70.2188 65.3725 70.0017 65.8912C69.7855 66.4091 70.0928 66.9837 70.6885 67.172L70.8461 67.2226L70.0593 69.1025L69.9005 69.0516C69.5146 68.9288 69.0829 68.9958 68.7687 69.2253C68.4529 69.4556 68.3035 69.8128 68.3752 70.1653C68.4464 70.5176 68.7286 70.8088 69.1154 70.9301L69.2733 70.9816L68.4865 72.8606L68.3277 72.81C67.9407 72.6878 67.5098 72.7547 67.1948 72.9842C66.8798 73.2137 66.7295 73.5718 66.8015 73.9241C66.8733 74.2758 67.1555 74.5669 67.5415 74.6891L67.6994 74.7392L66.7538 76.999L61.8687 75.4525C50.6564 71.9042 44.4488 61.201 48.0308 51.5935C49.8445 46.6769 53.8852 42.6156 59.2197 40.3487C64.5551 38.0809 70.7225 37.8042 76.2976 39.5809L81.7009 41.2915L80.9149 43.1713Z" fill="white"/>
<path d="M83.1778 43.3399C74.2252 40.507 64.326 44.5202 61.0683 52.3047C57.8103 60.089 62.4265 68.6958 71.379 71.5285C71.6657 71.62 71.9815 71.6079 72.2578 71.4959C72.5351 71.3842 72.7481 71.1807 72.8518 70.9316L83.865 44.6212C83.9695 44.372 83.9561 44.0967 83.8269 43.8563C83.6981 43.6166 83.4641 43.4307 83.1778 43.3399ZM71.0992 69.2726C63.9786 66.4703 60.5428 59.3706 63.216 52.9846C65.889 46.5983 73.7689 43.0798 81.2957 44.9117L71.0992 69.2726Z" fill="white"/>
</g>
<defs>
<clipPath id="clip0_279_68">
<rect width="69" height="60" fill="white" transform="translate(15 19)"/>
</clipPath>
</defs>
</svg>
