<svg width="69" height="60" viewBox="0 0 69 60" fill="none" xmlns="http://www.w3.org/2000/svg">
<g clip-path="url(#clip0_25_63)">
<path d="M67.4877 20.4116L64.401 19.4354V9.00044C64.3994 7.34433 62.8557 6.00202 60.951 6.00055H23.6273L22.9139 2.4806C22.5831 0.849183 20.7937 -0.241091 18.9167 0.0458232L16.652 0.392301C14.775 0.680665 13.522 2.23654 13.8519 3.86942L14.2846 6.00055H11.4995V5.00035C11.4995 2.23872 8.92582 0.000788633 5.74977 0.000788633C2.57374 0.000788633 0 2.23872 0 5.00035V54.9998C0.00334143 57.7593 2.57541 59.9956 5.74977 59.9986H51.7429L51.7555 60L51.7655 59.9986H60.951C62.8557 59.9978 64.3994 58.6554 64.401 56.9994V33.6329L68.8628 22.975C69.2929 21.937 68.6782 20.7908 67.4877 20.4116ZM5.74977 57.999C3.84515 57.9973 2.30141 56.6552 2.29974 54.9998C2.29974 53.3422 3.84431 51.9998 5.74977 51.9998C7.65524 51.9998 9.1998 53.3422 9.1998 54.9998C9.1998 56.6558 7.65524 57.999 5.74977 57.999ZM9.1998 51.0252C7.1682 49.6573 4.33135 49.6573 2.29974 51.0252V5.00035C2.30141 3.34424 3.84515 2.00192 5.74977 2.00047C7.65439 2.00192 9.19814 3.34424 9.1998 5.00035V51.0252ZM25.4408 26.4615L20.9115 27.1567L17.1165 8.44405L21.6466 7.75037L25.4408 26.4615ZM25.2554 28.5216L24.2663 32.1874L21.8947 29.0359L25.2554 28.5216ZM16.3087 2.77551C16.4825 2.55687 16.7506 2.40796 17.0513 2.36293L19.316 2.015C19.3828 2.00483 19.4497 2.00047 19.5173 2.00047C20.0745 2.0012 20.5515 2.34985 20.6484 2.8278L21.2473 5.78121L16.7172 6.47632L16.1182 3.52294C16.0631 3.26143 16.1316 2.99195 16.3087 2.77551ZM10.32 57.999C11.081 57.1388 11.4954 56.0842 11.4995 54.9998V8.00024H14.6898L18.8457 28.4895C18.8499 28.5105 18.8657 28.5296 18.8716 28.5514C18.8983 28.6546 18.9434 28.7524 19.0061 28.8434C19.0111 28.8492 19.0111 28.857 19.0153 28.863L23.8102 35.2352C24.0232 35.5178 24.385 35.6878 24.7734 35.687C24.8402 35.6878 24.9079 35.682 24.973 35.6712C25.4258 35.6021 25.7884 35.3043 25.8928 34.9156L27.8935 27.5017V27.4959C27.9076 27.4167 27.9101 27.3354 27.9019 27.254C27.9076 27.2039 27.9093 27.1523 27.906 27.1008V27.0993L24.0324 8.00024H60.951C61.5859 8.00099 62.1005 8.44841 62.1005 9.00044V18.7076L62.0839 18.7018C55.9214 16.7522 49.1125 17.0646 43.2207 19.5676C37.3279 22.0714 32.8604 26.5509 30.8438 31.9761C26.9837 42.3276 33.3976 53.802 45.1721 57.999H10.32ZM62.1005 56.9994C62.1005 57.5508 61.5859 57.999 60.951 57.999H54.2013L62.1014 39.128V56.9994H62.1005ZM65.9149 24.1713H65.9141C65.5279 24.0486 65.0962 24.1147 64.7812 24.3442C64.4662 24.5737 64.3159 24.9318 64.3876 25.2834C64.4588 25.6357 64.7411 25.9277 65.1278 26.0497V26.0504L64.341 27.9296C63.9543 27.8074 63.5223 27.8729 63.2073 28.1024C62.8925 28.3327 62.7428 28.6908 62.8148 29.0422C62.8857 29.3945 63.1683 29.6867 63.5542 29.8087H63.555L62.9266 31.3092L62.7671 31.2583C62.3812 31.1356 61.9495 31.2025 61.6345 31.432C61.3195 31.6609 61.1692 32.0198 61.2409 32.3721C61.3129 32.7227 61.5944 33.0155 61.9811 33.1377L62.1398 33.1869L61.353 35.0676L61.1943 35.0168C60.597 34.8279 59.9386 35.0967 59.7215 35.6151C59.5042 36.1338 59.8107 36.707 60.4072 36.8959L60.5667 36.9459L59.7799 38.8258L59.6204 38.7755C59.2345 38.6535 58.8025 38.7196 58.4877 38.9486C58.1727 39.1786 58.0225 39.5375 58.0942 39.8884C58.1659 40.2415 58.4476 40.5326 58.8344 40.6548L58.9931 40.7049L58.206 42.5853L58.0473 42.5345C57.45 42.3465 56.7919 42.6138 56.5745 43.1323C56.3575 43.6518 56.664 44.2247 57.2605 44.4135L57.42 44.4639L56.6332 46.3435L56.4745 46.2926C55.878 46.1046 55.2188 46.3725 55.0017 46.8912C54.7855 47.4091 55.0928 47.9837 55.6885 48.172L55.8461 48.2226L55.0593 50.1025L54.9005 50.0516C54.5146 49.9288 54.0829 49.9958 53.7687 50.2253C53.4529 50.4556 53.3035 50.8128 53.3752 51.1653C53.4464 51.5176 53.7286 51.8088 54.1154 51.9301L54.2733 51.9816L53.4865 53.8606L53.3277 53.81C52.9407 53.6878 52.5098 53.7547 52.1948 53.9842C51.8798 54.2137 51.7295 54.5718 51.8015 54.9241C51.8733 55.2758 52.1555 55.5669 52.5415 55.6891L52.6994 55.7392L51.7538 57.999L46.8687 56.4525C35.6564 52.9042 29.4488 42.201 33.0308 32.5935C34.8445 27.6769 38.8852 23.6156 44.2197 21.3487C49.5551 19.0809 55.7225 18.8042 61.2976 20.5809L66.7009 22.2915L65.9149 24.1713Z" fill="white"/>
<path d="M68.1778 24.3399C59.2252 21.507 49.326 25.5202 46.0683 33.3047C42.8103 41.089 47.4265 49.6958 56.379 52.5285C56.6657 52.62 56.9815 52.6079 57.2578 52.4959C57.5351 52.3842 57.7481 52.1807 57.8518 51.9316L68.865 25.6212C68.9695 25.372 68.9561 25.0967 68.8269 24.8563C68.6981 24.6166 68.4641 24.4307 68.1778 24.3399ZM56.0992 50.2726C48.9786 47.4703 45.5428 40.3706 48.216 33.9846C50.889 27.5983 58.7689 24.0798 66.2957 25.9117L56.0992 50.2726Z" fill="white"/>
</g>
<defs>
<clipPath id="clip0_25_63">
<rect width="69" height="60" fill="white"/>
</clipPath>
</defs>
</svg>
