<svg xmlns="http://www.w3.org/2000/svg" viewBox="0 0 969 969"><g id="Camada_2" data-name="Camada 2"><g id="Camada_1-2" data-name="Camada 1"><path d="M425,.2c0,.2-4.2,16-9.4,35.3l-9.3,35-9.4,2.2c-15.8,3.8-32.9,8.4-42.3,11.6l-8.9,2.9L319.6,61.1,293.5,35,242.8,64.3c-27.9,16.1-50.9,29.5-51.3,29.8-.5.5,3,14.1,15.9,61.8l2.5,9.4-8.7,8.1c-10.9,10.1-17.6,16.8-27.7,27.7l-8,8.6-35.4-9.4c-19.4-5.2-35.5-9.3-35.6-9.1C93.6,192,36,292.1,36,292.8c0,.4,11.5,12.2,25.7,26.4l25.6,25.6-3.1,9.9c-4.5,14.2-7.8,26.2-10.8,39.8-1.5,6.6-2.7,12.1-2.8,12.2s-15.2,4-33.6,8.8-34.3,8.8-35.2,9.1c-1.7.5-1.8,4.2-1.8,59.8v59.2l26.8,6.8c14.7,3.8,30.5,7.8,35.2,9l8.5,2.3,1.4,5.9c4.6,20,7.6,31.4,11.3,43.2l4.2,13.4L61.3,649.6,35.2,675l29.4,50.7c16.1,27.9,29.8,50.9,30.4,51.1s16.3-3.9,34.9-9.2l34-9.6,23.2,23.2,23.1,23.2-9.6,34.5c-7.6,27.3-9.3,34.8-8.3,35.7.6.6,23.7,14.1,51.2,29.9l50,28.8L319,907.2l25.6-26.1,10.9,3.5c12.8,4.2,44.8,12.4,48.2,12.4,3,0,3.3.6,8.8,22.5,2.5,9.9,6.4,25.1,8.7,33.7l4.1,15.8H543l.9-2.3c.5-1.2,4.5-16.8,9.1-34.7s8.7-33.1,9.2-33.8a4.77,4.77,0,0,1,2.9-1.2c3.3,0,34.3-7.9,47-12,7.1-2.2,12.6-3.5,12.9-3,2,3.2,50.5,51,51.4,50.6.6-.2,23.6-13.5,51.1-29.4,41.6-24,50-29.2,49.7-30.9-.1-1.1-4.5-17-9.6-35.4l-9.4-33.4,5.6-4.9c7.4-6.5,28.5-27.5,34.9-34.9l5-5.8,12.9,3.6c33.3,9.4,55.6,15.5,56.7,15.5s58.8-98.3,59.5-101.3c.1-.7-11.4-12.6-25.7-26.4L881.2,624l3.9-11.9a406.54,406.54,0,0,0,10.8-40.8l1.8-8.7,30.9-8.3c17-4.6,33-8.8,35.7-9.5l4.7-1.1V425.1l-3.2-.9c-1.8-.5-17.5-4.6-34.8-9.2s-32-8.7-32.6-9.2-1.5-2.7-1.8-5.1c-1.1-7-6.1-26.5-10.7-41.6l-4.2-14.3L907.5,319c24.7-24.7,25.7-25.8,24.5-28.1-1.4-2.7-57.1-99.2-57.6-99.7-.1-.2-16,3.9-35.4,9.1l-35.1,9.5-22.4-22.5-22.3-22.4,9.3-35.2c5.2-19.3,9.2-35.3,9-35.5s-23.2-13.5-51.1-29.7L675.5,35.1,649.4,61.2l-26.2,26-9.3-3a339.84,339.84,0,0,0-36.8-10.1c-7.4-1.7-13.7-3.4-14.1-3.8s-4.9-16.4-10-35.6L543.7,0H484.3C451.7,0,425,.1,425,.2Z"/></g></g></svg>