<?xml version="1.0" standalone="no"?>
<!DOCTYPE svg PUBLIC "-//W3C//DTD SVG 20010904//EN"
 "http://www.w3.org/TR/2001/REC-SVG-20010904/DTD/svg10.dtd">
<svg version="1.0" xmlns="http://www.w3.org/2000/svg"
 width="1280.000000pt" height="1280.000000pt" viewBox="0 0 1280.000000 1280.000000"
 preserveAspectRatio="xMidYMid meet">
<metadata>
Created by potrace 1.15, written by Peter Selinger 2001-2017
</metadata>
<g transform="translate(0.000000,1280.000000) scale(0.100000,-0.100000)"
fill="#000000" stroke="none">
<path d="M5777 12793 c-3 -5 -58 -309 -123 -678 -65 -368 -120 -673 -124 -677
-3 -4 -73 -21 -155 -38 -194 -39 -422 -99 -596 -156 -77 -25 -143 -43 -148
-39 -6 3 -206 239 -447 525 -240 286 -440 520 -444 520 -4 0 -247 -139 -541
-309 -343 -198 -533 -314 -531 -322 2 -8 104 -296 228 -641 123 -345 224 -631
224 -635 0 -5 -48 -49 -107 -100 -129 -109 -324 -301 -459 -450 -53 -59 -100
-109 -103 -111 -4 -1 -292 101 -641 228 -349 126 -638 226 -641 222 -11 -10
-608 -1046 -613 -1063 -3 -9 166 -159 480 -424 266 -225 496 -420 510 -431
l26 -21 -65 -194 c-64 -189 -152 -521 -177 -666 l-13 -72 -46 -9 c-25 -6 -322
-59 -659 -118 l-612 -108 2 -625 3 -625 641 -116 c352 -64 647 -119 655 -122
10 -4 21 -41 33 -104 42 -227 117 -512 188 -718 l42 -119 -23 -18 c-116 -94
-991 -834 -991 -838 0 -4 139 -247 309 -541 192 -331 315 -534 323 -532 7 2
283 99 613 217 330 118 605 215 611 217 5 2 54 -48 109 -111 122 -141 338
-358 484 -486 l110 -96 -19 -52 c-150 -401 -427 -1184 -422 -1188 30 -28 1075
-620 1081 -613 4 5 196 231 425 502 230 270 421 492 426 492 5 0 53 -16 107
-35 198 -71 469 -145 697 -189 71 -14 133 -29 137 -33 4 -5 57 -291 118 -638
61 -347 114 -636 116 -643 4 -10 134 -12 627 -10 l623 3 117 643 c64 354 119
646 122 649 3 3 56 16 118 28 199 41 398 95 611 166 207 69 209 69 225 49 137
-164 838 -989 842 -989 7 -1 1062 607 1072 618 5 4 -95 290 -221 636 l-229
630 32 29 c290 264 337 312 608 610 l37 41 133 -47 c73 -25 358 -127 633 -226
275 -99 504 -176 508 -172 11 9 617 1060 617 1069 0 4 -234 205 -520 445 -286
241 -520 440 -520 443 0 3 27 89 60 191 63 193 113 384 154 585 13 65 26 121
30 124 3 4 307 61 674 128 l667 121 3 625 2 625 -667 117 c-368 65 -675 120
-684 123 -12 3 -22 35 -38 117 -43 217 -108 456 -184 674 l-36 102 527 447
c290 246 528 450 530 454 3 7 -600 1056 -615 1071 -5 5 -303 -98 -662 -228
l-654 -237 -24 30 c-143 169 -383 409 -591 590 l-33 29 235 655 c177 494 231
658 223 666 -7 6 -248 147 -537 314 -350 202 -528 299 -537 294 -7 -5 -209
-243 -449 -529 -240 -286 -438 -522 -440 -524 -2 -2 -57 15 -121 37 -217 75
-424 132 -665 183 l-106 22 -17 96 c-10 53 -66 359 -124 681 l-106 585 -622 3
c-342 1 -624 -1 -626 -5z m798 -4403 c701 -66 1309 -482 1615 -1105 348 -708
253 -1534 -246 -2152 -401 -495 -1056 -777 -1686 -725 -722 60 -1336 472
-1648 1107 -348 708 -253 1534 246 2152 409 505 1072 783 1719 723z"/>
<path d="M6217 7584 c-111 -17 -280 -73 -377 -125 -277 -150 -475 -384 -575
-681 -85 -254 -85 -502 0 -756 122 -363 394 -635 757 -757 254 -85 502 -85
756 0 363 122 635 394 757 757 85 254 85 502 0 756 -186 555 -743 896 -1318
806z"/>
</g>
</svg>
