<svg width="32" height="31" viewBox="0 0 32 31" fill="none" xmlns="http://www.w3.org/2000/svg">
<path d="M0 3.60101C0 2.55722 0.360371 1.69611 1.08108 1.01768C1.80179 0.339215 2.73875 0 3.89189 0C5.02446 0 5.94079 0.333986 6.64093 1.00202C7.36164 1.69091 7.72201 2.58853 7.72201 3.69495C7.72201 4.69697 7.37195 5.53197 6.67181 6.2C5.9511 6.88889 5.00386 7.23333 3.83012 7.23333H3.79923C2.66666 7.23333 1.75033 6.88889 1.05019 6.2C0.350054 5.51111 0 4.64477 0 3.60101ZM0.401544 31V10.0828H7.25869V31H0.401544ZM11.0579 31H17.9151V19.3202C17.9151 18.5895 17.9974 18.0259 18.1622 17.6293C18.4504 16.9195 18.888 16.3193 19.4749 15.8288C20.0618 15.3382 20.7979 15.0929 21.6834 15.0929C23.9897 15.0929 25.1429 16.669 25.1429 19.8212V31H32V19.0071C32 15.9175 31.2793 13.5742 29.8378 11.9773C28.3964 10.3803 26.4916 9.58182 24.1236 9.58182C21.4672 9.58182 19.3977 10.7404 17.9151 13.0576V13.1202H17.8842L17.9151 13.0576V10.0828H11.0579C11.0991 10.7508 11.1197 12.8279 11.1197 16.3141C11.1197 19.8003 11.0991 24.6956 11.0579 31Z" fill="#EF5F03"/>
</svg>
