<svg width="69" height="60" viewBox="0 0 69 60" fill="none" xmlns="http://www.w3.org/2000/svg">
<g clip-path="url(#clip0_25_78)">
<path d="M10.5344 28.9338L12.8241 29.0279C13.0618 24.8013 14.8628 20.8642 18.0259 17.6445L16.2831 16.3408C12.7842 19.9037 10.7987 24.2548 10.5344 28.9338Z" fill="white"/>
<path d="M44.9134 36.973V22.9865H49.801C51.1001 25.1291 51.7947 27.533 51.7947 29.9797C51.7947 32.4262 51.1001 34.8268 49.801 36.973H44.9134ZM42.6188 36.973H24.2674C23.6357 36.973 23.1204 36.5241 23.1204 35.9741C23.1204 35.4232 23.6357 34.9751 24.2674 34.9751H27.708V32.9765H24.2674C23.6357 32.9765 23.1204 32.5276 23.1204 31.9776C23.1204 31.4273 23.6357 30.9786 24.2674 30.9786H27.708V28.9808H24.2674C23.6357 28.9808 23.1204 28.5319 23.1204 27.9819C23.1204 27.4316 23.6357 26.9829 24.2674 26.9829H27.708V24.9851H24.2674C23.6357 24.9851 23.1204 24.5362 23.1204 23.9854C23.1204 23.4353 23.6357 22.9865 24.2674 22.9865H42.6188V36.973ZM39.0657 45.8778C39.0933 45.9132 39.1238 45.94 39.1555 45.9676C40.9923 47.5789 41.8035 49.87 41.3462 52.0943L35.8803 47.3451C35.4322 46.9549 34.7068 46.9549 34.263 47.3451L29.3967 51.5789C28.9489 51.9692 28.9489 52.6019 29.3967 52.9919L34.8496 57.7527C33.721 57.9243 32.5518 57.8816 31.4221 57.6203C30.0518 57.327 28.7925 56.7032 27.7705 55.8135C26.5969 54.7986 25.8265 53.5146 25.5439 52.0943C25.0868 49.8468 25.9204 47.5441 27.7754 45.9322C27.9407 45.7846 28.1112 45.6441 28.3398 45.4762C28.3755 45.4522 28.4876 45.3705 28.5192 45.343C28.7343 45.1562 28.855 44.8984 28.855 44.6327V38.9708H35.7372V43.4659C35.7372 43.8719 36.024 44.2427 36.4586 44.3911C37.4484 44.7384 38.3218 45.2378 39.0657 45.8778ZM26.3866 13.9411C24.5358 12.3291 23.7205 10.0308 24.1685 7.78322L29.6254 12.5245C30.0784 12.9147 30.7997 12.9147 31.2476 12.5245L36.1138 8.2863C36.5616 7.90049 36.5616 7.26784 36.1138 6.87405L30.6609 2.11684C30.862 2.08571 31.0682 2.05821 31.2744 2.04301C33.524 1.82005 35.6251 2.46067 37.2289 3.66227C37.2738 3.69776 37.3188 3.72886 37.3677 3.75565C37.4892 3.84976 37.6148 3.94749 37.7392 4.05678C38.676 4.86389 39.3484 5.82808 39.7332 6.92835C40.5799 9.30116 39.8953 11.9121 37.9503 13.7341C37.9189 13.7616 37.8965 13.7891 37.8699 13.8159C37.834 13.8593 37.7893 13.8941 37.726 13.9447C37.3231 14.3038 36.8525 14.6281 36.2832 14.9321C35.9434 15.1159 35.7372 15.4395 35.7372 15.7833V20.9886H28.855V16.0331C28.855 15.6661 28.6223 15.3302 28.25 15.155C27.9366 15.0066 27.6815 14.8662 27.4082 14.6867C27.0407 14.4681 26.7 14.2184 26.3866 13.9411ZM39.3484 20.9886H38.0309V20.0715L39.3484 20.9886ZM42.9278 43.0916L44.0391 44.8397C47.1398 43.3451 49.7112 41.1403 51.4813 38.4713C53.1885 35.9038 54.0885 32.9692 54.0885 29.9797C54.0885 26.9901 53.1885 24.0556 51.4813 21.4881C49.5234 18.5383 46.6338 16.1966 43.1207 14.7062L42.1176 16.5007C44.59 17.551 46.7092 19.0885 48.345 20.9886H43.0217L38.0309 17.5119V16.3255C38.528 16.0208 38.9677 15.6972 39.3658 15.3461C39.478 15.2484 39.5768 15.1586 39.6618 15.0653C42.1442 12.7156 43.0084 9.37932 41.9247 6.33911C41.432 4.92686 40.5626 3.67822 39.3574 2.64019C39.1647 2.47225 38.9718 2.32748 38.784 2.17909C38.7523 2.15593 38.7166 2.13638 38.6809 2.11322C36.5749 0.564157 33.8057 -0.216889 31.0324 0.0523872C30.0069 0.146489 29.003 0.368713 28.0438 0.716168C27.6947 0.845013 27.4396 1.11791 27.3633 1.44582C27.2918 1.77373 27.4082 2.10888 27.6766 2.34341L33.6804 7.58416L30.4366 10.4058L24.4236 5.17659C24.1552 4.93846 23.7612 4.84435 23.3848 4.90297C23.0083 4.96957 22.6941 5.19614 22.5512 5.50813C22.4032 5.82808 22.2329 6.20665 22.1298 6.58524C21.1308 9.70724 22.1389 13.0667 24.7511 15.3418C25.1633 15.7088 25.6245 16.0446 26.0683 16.3059C26.2204 16.4073 26.3866 16.5086 26.5612 16.6063V20.9886H24.2674C22.3675 20.9886 20.8258 22.3314 20.8258 23.9854C20.8258 24.7541 21.1574 25.4527 21.7043 25.984C21.1574 26.5146 20.8258 27.213 20.8258 27.9819C20.8258 28.7505 21.1574 29.4492 21.7043 29.9797C21.1574 30.5103 20.8258 31.2089 20.8258 31.9776C20.8258 32.7462 21.1574 33.4449 21.7043 33.9754C21.1574 34.5068 20.8258 35.2051 20.8258 35.9741C20.8258 37.6281 22.3675 38.9708 24.2674 38.9708H26.5612V44.1768C26.4224 44.2854 26.2877 44.3989 26.1531 44.5162C23.7695 46.5922 22.6991 49.5535 23.2859 52.4376C23.649 54.2681 24.6439 55.9265 26.1531 57.2295C27.4664 58.3732 29.0969 59.1811 30.853 59.5559C31.7089 59.7543 32.5964 59.8562 33.4791 59.8562C34.8404 59.8519 36.2026 59.6181 37.4708 59.1497C37.8207 59.0211 38.0759 58.7516 38.1473 58.4238C38.219 58.0959 38.1026 57.7608 37.834 57.5262L31.8304 52.2892L35.074 49.4638L41.087 54.693C41.3554 54.9276 41.741 55.0289 42.1084 54.9668C42.4848 54.9038 42.7982 54.6895 42.9462 54.3846C43.1248 54.0335 43.2728 53.663 43.3899 53.2649C44.3706 50.1935 43.394 46.8849 40.8402 44.6097C40.8137 44.5784 40.782 44.5511 40.7504 44.52C39.9616 43.8249 39.0484 43.2516 38.0309 42.8181V38.9708H48.349C46.9022 40.6568 45.0606 42.0651 42.9278 43.0916Z" fill="white"/>
<path d="M23.6216 44.0241L24.9123 42.3692C20.1992 39.5795 17.3851 34.9476 17.3851 29.9798C17.3851 25.1646 20.0646 20.6144 24.5541 17.8044L23.2144 16.1808C18.129 19.365 15.0913 24.524 15.0913 29.9798C15.0913 35.6106 18.281 40.8592 23.6216 44.0241Z" fill="white"/>
<path d="M1.32757 33.9754H6.28751C6.59668 35.6497 7.09784 37.2814 7.77434 38.85L3.49588 41.0041C2.94488 41.277 2.7612 41.8895 3.07452 42.3692L6.51608 47.56C6.66815 47.7903 6.91914 47.9576 7.21419 48.0276C7.50589 48.0978 7.81923 48.0595 8.08351 47.9265L12.3719 45.7649C13.5995 47.0678 14.9699 48.2622 16.4667 49.3278L13.9843 53.0657C13.8322 53.2959 13.7873 53.5695 13.8679 53.823C13.9485 54.0805 14.1413 54.2992 14.4056 54.4316L20.3695 57.4284C20.5482 57.5181 20.7452 57.5616 20.938 57.5616C21.3369 57.5616 21.7225 57.3822 21.9328 57.0622L23.0032 55.4546L21.0144 54.4549L20.5216 55.2005L16.5432 53.2027L18.9492 49.5811C19.2401 49.1438 19.1146 48.5903 18.6533 48.2854C16.7352 47.0173 15.0281 45.5303 13.572 43.8605C13.223 43.4586 12.5863 43.3495 12.0852 43.6027L7.93141 45.6946L5.63263 42.2332L9.78227 40.1457C10.2793 39.8916 10.4895 39.3573 10.2659 38.8927C9.34261 36.9846 8.72427 34.9476 8.4201 32.8519C8.34363 32.3524 7.85995 31.9776 7.28152 31.9776H2.47447V27.9819H7.28152C7.85995 27.9819 8.34363 27.6068 8.4201 27.1073C8.65697 25.4686 9.09162 23.8573 9.70994 22.3191C9.88033 21.8942 10.064 21.4765 10.2659 21.0668C10.4895 20.6021 10.2793 20.0679 9.78227 19.8138L5.63263 17.7262L7.93141 14.2647L12.0852 16.3566C12.5822 16.61 13.223 16.4971 13.572 16.0989C15.0281 14.429 16.7352 12.9422 18.6533 11.674C19.1146 11.3692 19.2401 10.8155 18.9492 10.3782L16.5432 6.75678L20.3022 4.87184L19.1553 3.13965L14.4056 5.52768C14.1413 5.66014 13.9485 5.87873 13.8679 6.13643C13.7873 6.38978 13.8322 6.66341 13.9843 6.89359L16.4667 10.6316C14.9699 11.6971 13.5995 12.8915 12.3719 14.1945L8.08351 12.033C7.81923 11.8998 7.50589 11.8615 7.21419 11.9316C6.91914 12.0019 6.66815 12.1691 6.51608 12.3993L3.07452 17.5901C2.7612 18.07 2.94488 18.6824 3.49588 18.9553L7.77434 21.1095C7.69373 21.2934 7.62224 21.4729 7.5458 21.656C6.98647 23.0531 6.56013 24.5044 6.28751 25.984H1.32757C0.695941 25.984 0.180664 26.4328 0.180664 26.9829V32.9765C0.180664 33.5265 0.695941 33.9754 1.32757 33.9754Z" fill="white"/>
<path d="M21.0145 14.413L19.585 12.8524C18.9351 13.3012 18.3126 13.7811 17.73 14.2806L19.334 15.7088C19.8626 15.2563 20.4277 14.8227 21.0145 14.413Z" fill="white"/>
<path d="M67.8521 25.984H62.8931C62.5841 24.3097 62.0819 22.6781 61.4054 21.1095L65.6839 18.9553C66.2348 18.6824 66.4237 18.07 66.1052 17.5901L62.6647 12.3993C62.5116 12.1691 62.2615 12.0019 61.9655 11.9317C61.6698 11.8615 61.3605 11.8999 61.0964 12.033L56.8086 14.1945C55.5812 12.8916 54.2099 11.6972 52.713 10.6316L55.1957 6.89364C55.3477 6.66345 55.3926 6.38982 55.312 6.13647C55.2314 5.87877 55.0384 5.66018 54.7741 5.52769L48.8111 2.53092C48.2643 2.25368 47.5613 2.41727 47.2471 2.8972L44.2766 7.37355L46.2614 8.37247L48.6582 4.75896L52.6375 6.75682L50.2314 10.3783C49.9398 10.8155 50.0653 11.3693 50.5264 11.674C52.4446 12.9422 54.1517 14.429 55.6078 16.099C55.9568 16.5007 56.5976 16.61 57.0955 16.3567L61.2484 14.2647L63.5471 17.7262L59.3984 19.8138C58.9006 20.0679 58.6903 20.6021 58.9138 21.0668C59.8373 22.9749 60.4556 25.0119 60.7606 27.1076C60.8361 27.607 61.3199 27.9819 61.8984 27.9819H66.7054V31.9776H61.8984C61.3199 31.9776 60.8361 32.3524 60.7606 32.8519C60.4556 34.9476 59.8373 36.9846 58.9138 38.8927C58.6903 39.3573 58.9006 39.8916 59.3984 40.1457L63.5471 42.2332L61.2484 45.6949L57.0955 43.6027C56.5976 43.3494 55.9568 43.4586 55.6078 43.8605C54.1517 45.5305 52.4446 47.0173 50.5264 48.2854C50.0653 48.5903 49.9398 49.144 50.2314 49.5811L52.6375 53.2027L48.6582 55.2005L47.5031 53.4559L45.5175 54.4548L47.2471 57.0621C47.4582 57.3821 47.843 57.5616 48.2418 57.5616C48.4347 57.5616 48.6317 57.5184 48.8111 57.4286L54.7741 54.4319C55.0384 54.2992 55.2314 54.0808 55.312 53.823C55.3926 53.5697 55.3477 53.2959 55.1957 53.0659L52.713 49.3278C54.2099 48.2624 55.5812 47.0678 56.8086 45.7649L61.0964 47.9265C61.3605 48.0597 61.6698 48.0981 61.9655 48.0278C62.2615 47.9576 62.5116 47.7903 62.6647 47.5603L66.1052 42.3694C66.4237 41.8894 66.2348 41.277 65.6839 41.004L61.4054 38.85C62.0819 37.2813 62.5841 35.6497 62.8931 33.9754H67.8521C68.4848 33.9754 69 33.5267 69 32.9765V26.983C69 26.4328 68.4848 25.984 67.8521 25.984Z" fill="white"/>
</g>
<defs>
<clipPath id="clip0_25_78">
<rect width="69" height="60" fill="white"/>
</clipPath>
</defs>
</svg>
